G75*
%MOIN*%
%OFA0B0*%
%FSLAX25Y25*%
%IPPOS*%
%LPD*%
%AMOC8*
5,1,8,0,0,1.08239X$1,22.5*
%
%ADD10C,0.16548*%
%ADD11C,0.07874*%
%ADD12C,0.06000*%
%ADD13OC8,0.06737*%
%ADD14C,0.06400*%
%ADD15OC8,0.06400*%
%ADD16R,0.09461X0.03162*%
%ADD17R,0.03162X0.09461*%
%ADD18R,0.05918X0.06706*%
%ADD19R,0.06706X0.05918*%
%ADD20R,0.11824X0.10249*%
D10*
X0072116Y0021185D03*
X0495344Y0021185D03*
X0495344Y0450319D03*
X0072116Y0450319D03*
D11*
X0061903Y0021185D02*
X0061906Y0021436D01*
X0061915Y0021686D01*
X0061931Y0021936D01*
X0061952Y0022186D01*
X0061980Y0022435D01*
X0062014Y0022684D01*
X0062053Y0022931D01*
X0062099Y0023177D01*
X0062151Y0023423D01*
X0062209Y0023667D01*
X0062273Y0023909D01*
X0062343Y0024150D01*
X0062418Y0024389D01*
X0062500Y0024626D01*
X0062587Y0024861D01*
X0062680Y0025093D01*
X0062779Y0025324D01*
X0062884Y0025552D01*
X0062994Y0025777D01*
X0063109Y0025999D01*
X0063230Y0026219D01*
X0063356Y0026436D01*
X0063488Y0026649D01*
X0063624Y0026859D01*
X0063766Y0027066D01*
X0063913Y0027269D01*
X0064065Y0027468D01*
X0064221Y0027664D01*
X0064383Y0027856D01*
X0064549Y0028044D01*
X0064719Y0028227D01*
X0064894Y0028407D01*
X0065074Y0028582D01*
X0065257Y0028752D01*
X0065445Y0028918D01*
X0065637Y0029080D01*
X0065833Y0029236D01*
X0066032Y0029388D01*
X0066235Y0029535D01*
X0066442Y0029677D01*
X0066652Y0029813D01*
X0066865Y0029945D01*
X0067082Y0030071D01*
X0067302Y0030192D01*
X0067524Y0030307D01*
X0067749Y0030417D01*
X0067977Y0030522D01*
X0068208Y0030621D01*
X0068440Y0030714D01*
X0068675Y0030801D01*
X0068912Y0030883D01*
X0069151Y0030958D01*
X0069392Y0031028D01*
X0069634Y0031092D01*
X0069878Y0031150D01*
X0070124Y0031202D01*
X0070370Y0031248D01*
X0070617Y0031287D01*
X0070866Y0031321D01*
X0071115Y0031349D01*
X0071365Y0031370D01*
X0071615Y0031386D01*
X0071865Y0031395D01*
X0072116Y0031398D01*
X0072367Y0031395D01*
X0072617Y0031386D01*
X0072867Y0031370D01*
X0073117Y0031349D01*
X0073366Y0031321D01*
X0073615Y0031287D01*
X0073862Y0031248D01*
X0074108Y0031202D01*
X0074354Y0031150D01*
X0074598Y0031092D01*
X0074840Y0031028D01*
X0075081Y0030958D01*
X0075320Y0030883D01*
X0075557Y0030801D01*
X0075792Y0030714D01*
X0076024Y0030621D01*
X0076255Y0030522D01*
X0076483Y0030417D01*
X0076708Y0030307D01*
X0076930Y0030192D01*
X0077150Y0030071D01*
X0077367Y0029945D01*
X0077580Y0029813D01*
X0077790Y0029677D01*
X0077997Y0029535D01*
X0078200Y0029388D01*
X0078399Y0029236D01*
X0078595Y0029080D01*
X0078787Y0028918D01*
X0078975Y0028752D01*
X0079158Y0028582D01*
X0079338Y0028407D01*
X0079513Y0028227D01*
X0079683Y0028044D01*
X0079849Y0027856D01*
X0080011Y0027664D01*
X0080167Y0027468D01*
X0080319Y0027269D01*
X0080466Y0027066D01*
X0080608Y0026859D01*
X0080744Y0026649D01*
X0080876Y0026436D01*
X0081002Y0026219D01*
X0081123Y0025999D01*
X0081238Y0025777D01*
X0081348Y0025552D01*
X0081453Y0025324D01*
X0081552Y0025093D01*
X0081645Y0024861D01*
X0081732Y0024626D01*
X0081814Y0024389D01*
X0081889Y0024150D01*
X0081959Y0023909D01*
X0082023Y0023667D01*
X0082081Y0023423D01*
X0082133Y0023177D01*
X0082179Y0022931D01*
X0082218Y0022684D01*
X0082252Y0022435D01*
X0082280Y0022186D01*
X0082301Y0021936D01*
X0082317Y0021686D01*
X0082326Y0021436D01*
X0082329Y0021185D01*
X0082326Y0020934D01*
X0082317Y0020684D01*
X0082301Y0020434D01*
X0082280Y0020184D01*
X0082252Y0019935D01*
X0082218Y0019686D01*
X0082179Y0019439D01*
X0082133Y0019193D01*
X0082081Y0018947D01*
X0082023Y0018703D01*
X0081959Y0018461D01*
X0081889Y0018220D01*
X0081814Y0017981D01*
X0081732Y0017744D01*
X0081645Y0017509D01*
X0081552Y0017277D01*
X0081453Y0017046D01*
X0081348Y0016818D01*
X0081238Y0016593D01*
X0081123Y0016371D01*
X0081002Y0016151D01*
X0080876Y0015934D01*
X0080744Y0015721D01*
X0080608Y0015511D01*
X0080466Y0015304D01*
X0080319Y0015101D01*
X0080167Y0014902D01*
X0080011Y0014706D01*
X0079849Y0014514D01*
X0079683Y0014326D01*
X0079513Y0014143D01*
X0079338Y0013963D01*
X0079158Y0013788D01*
X0078975Y0013618D01*
X0078787Y0013452D01*
X0078595Y0013290D01*
X0078399Y0013134D01*
X0078200Y0012982D01*
X0077997Y0012835D01*
X0077790Y0012693D01*
X0077580Y0012557D01*
X0077367Y0012425D01*
X0077150Y0012299D01*
X0076930Y0012178D01*
X0076708Y0012063D01*
X0076483Y0011953D01*
X0076255Y0011848D01*
X0076024Y0011749D01*
X0075792Y0011656D01*
X0075557Y0011569D01*
X0075320Y0011487D01*
X0075081Y0011412D01*
X0074840Y0011342D01*
X0074598Y0011278D01*
X0074354Y0011220D01*
X0074108Y0011168D01*
X0073862Y0011122D01*
X0073615Y0011083D01*
X0073366Y0011049D01*
X0073117Y0011021D01*
X0072867Y0011000D01*
X0072617Y0010984D01*
X0072367Y0010975D01*
X0072116Y0010972D01*
X0071865Y0010975D01*
X0071615Y0010984D01*
X0071365Y0011000D01*
X0071115Y0011021D01*
X0070866Y0011049D01*
X0070617Y0011083D01*
X0070370Y0011122D01*
X0070124Y0011168D01*
X0069878Y0011220D01*
X0069634Y0011278D01*
X0069392Y0011342D01*
X0069151Y0011412D01*
X0068912Y0011487D01*
X0068675Y0011569D01*
X0068440Y0011656D01*
X0068208Y0011749D01*
X0067977Y0011848D01*
X0067749Y0011953D01*
X0067524Y0012063D01*
X0067302Y0012178D01*
X0067082Y0012299D01*
X0066865Y0012425D01*
X0066652Y0012557D01*
X0066442Y0012693D01*
X0066235Y0012835D01*
X0066032Y0012982D01*
X0065833Y0013134D01*
X0065637Y0013290D01*
X0065445Y0013452D01*
X0065257Y0013618D01*
X0065074Y0013788D01*
X0064894Y0013963D01*
X0064719Y0014143D01*
X0064549Y0014326D01*
X0064383Y0014514D01*
X0064221Y0014706D01*
X0064065Y0014902D01*
X0063913Y0015101D01*
X0063766Y0015304D01*
X0063624Y0015511D01*
X0063488Y0015721D01*
X0063356Y0015934D01*
X0063230Y0016151D01*
X0063109Y0016371D01*
X0062994Y0016593D01*
X0062884Y0016818D01*
X0062779Y0017046D01*
X0062680Y0017277D01*
X0062587Y0017509D01*
X0062500Y0017744D01*
X0062418Y0017981D01*
X0062343Y0018220D01*
X0062273Y0018461D01*
X0062209Y0018703D01*
X0062151Y0018947D01*
X0062099Y0019193D01*
X0062053Y0019439D01*
X0062014Y0019686D01*
X0061980Y0019935D01*
X0061952Y0020184D01*
X0061931Y0020434D01*
X0061915Y0020684D01*
X0061906Y0020934D01*
X0061903Y0021185D01*
X0485184Y0021185D02*
X0485187Y0021434D01*
X0485196Y0021684D01*
X0485212Y0021932D01*
X0485233Y0022181D01*
X0485260Y0022429D01*
X0485294Y0022676D01*
X0485334Y0022922D01*
X0485379Y0023167D01*
X0485431Y0023411D01*
X0485488Y0023654D01*
X0485552Y0023895D01*
X0485621Y0024134D01*
X0485697Y0024372D01*
X0485778Y0024608D01*
X0485865Y0024842D01*
X0485957Y0025073D01*
X0486056Y0025302D01*
X0486159Y0025529D01*
X0486269Y0025753D01*
X0486384Y0025974D01*
X0486504Y0026193D01*
X0486629Y0026408D01*
X0486760Y0026621D01*
X0486896Y0026830D01*
X0487037Y0027035D01*
X0487183Y0027237D01*
X0487334Y0027436D01*
X0487490Y0027630D01*
X0487651Y0027821D01*
X0487816Y0028008D01*
X0487986Y0028191D01*
X0488160Y0028369D01*
X0488338Y0028543D01*
X0488521Y0028713D01*
X0488708Y0028878D01*
X0488899Y0029039D01*
X0489093Y0029195D01*
X0489292Y0029346D01*
X0489494Y0029492D01*
X0489699Y0029633D01*
X0489908Y0029769D01*
X0490121Y0029900D01*
X0490336Y0030025D01*
X0490555Y0030145D01*
X0490776Y0030260D01*
X0491000Y0030370D01*
X0491227Y0030473D01*
X0491456Y0030572D01*
X0491687Y0030664D01*
X0491921Y0030751D01*
X0492157Y0030832D01*
X0492395Y0030908D01*
X0492634Y0030977D01*
X0492875Y0031041D01*
X0493118Y0031098D01*
X0493362Y0031150D01*
X0493607Y0031195D01*
X0493853Y0031235D01*
X0494100Y0031269D01*
X0494348Y0031296D01*
X0494597Y0031317D01*
X0494845Y0031333D01*
X0495095Y0031342D01*
X0495344Y0031345D01*
X0495593Y0031342D01*
X0495843Y0031333D01*
X0496091Y0031317D01*
X0496340Y0031296D01*
X0496588Y0031269D01*
X0496835Y0031235D01*
X0497081Y0031195D01*
X0497326Y0031150D01*
X0497570Y0031098D01*
X0497813Y0031041D01*
X0498054Y0030977D01*
X0498293Y0030908D01*
X0498531Y0030832D01*
X0498767Y0030751D01*
X0499001Y0030664D01*
X0499232Y0030572D01*
X0499461Y0030473D01*
X0499688Y0030370D01*
X0499912Y0030260D01*
X0500133Y0030145D01*
X0500352Y0030025D01*
X0500567Y0029900D01*
X0500780Y0029769D01*
X0500989Y0029633D01*
X0501194Y0029492D01*
X0501396Y0029346D01*
X0501595Y0029195D01*
X0501789Y0029039D01*
X0501980Y0028878D01*
X0502167Y0028713D01*
X0502350Y0028543D01*
X0502528Y0028369D01*
X0502702Y0028191D01*
X0502872Y0028008D01*
X0503037Y0027821D01*
X0503198Y0027630D01*
X0503354Y0027436D01*
X0503505Y0027237D01*
X0503651Y0027035D01*
X0503792Y0026830D01*
X0503928Y0026621D01*
X0504059Y0026408D01*
X0504184Y0026193D01*
X0504304Y0025974D01*
X0504419Y0025753D01*
X0504529Y0025529D01*
X0504632Y0025302D01*
X0504731Y0025073D01*
X0504823Y0024842D01*
X0504910Y0024608D01*
X0504991Y0024372D01*
X0505067Y0024134D01*
X0505136Y0023895D01*
X0505200Y0023654D01*
X0505257Y0023411D01*
X0505309Y0023167D01*
X0505354Y0022922D01*
X0505394Y0022676D01*
X0505428Y0022429D01*
X0505455Y0022181D01*
X0505476Y0021932D01*
X0505492Y0021684D01*
X0505501Y0021434D01*
X0505504Y0021185D01*
X0505501Y0020936D01*
X0505492Y0020686D01*
X0505476Y0020438D01*
X0505455Y0020189D01*
X0505428Y0019941D01*
X0505394Y0019694D01*
X0505354Y0019448D01*
X0505309Y0019203D01*
X0505257Y0018959D01*
X0505200Y0018716D01*
X0505136Y0018475D01*
X0505067Y0018236D01*
X0504991Y0017998D01*
X0504910Y0017762D01*
X0504823Y0017528D01*
X0504731Y0017297D01*
X0504632Y0017068D01*
X0504529Y0016841D01*
X0504419Y0016617D01*
X0504304Y0016396D01*
X0504184Y0016177D01*
X0504059Y0015962D01*
X0503928Y0015749D01*
X0503792Y0015540D01*
X0503651Y0015335D01*
X0503505Y0015133D01*
X0503354Y0014934D01*
X0503198Y0014740D01*
X0503037Y0014549D01*
X0502872Y0014362D01*
X0502702Y0014179D01*
X0502528Y0014001D01*
X0502350Y0013827D01*
X0502167Y0013657D01*
X0501980Y0013492D01*
X0501789Y0013331D01*
X0501595Y0013175D01*
X0501396Y0013024D01*
X0501194Y0012878D01*
X0500989Y0012737D01*
X0500780Y0012601D01*
X0500567Y0012470D01*
X0500352Y0012345D01*
X0500133Y0012225D01*
X0499912Y0012110D01*
X0499688Y0012000D01*
X0499461Y0011897D01*
X0499232Y0011798D01*
X0499001Y0011706D01*
X0498767Y0011619D01*
X0498531Y0011538D01*
X0498293Y0011462D01*
X0498054Y0011393D01*
X0497813Y0011329D01*
X0497570Y0011272D01*
X0497326Y0011220D01*
X0497081Y0011175D01*
X0496835Y0011135D01*
X0496588Y0011101D01*
X0496340Y0011074D01*
X0496091Y0011053D01*
X0495843Y0011037D01*
X0495593Y0011028D01*
X0495344Y0011025D01*
X0495095Y0011028D01*
X0494845Y0011037D01*
X0494597Y0011053D01*
X0494348Y0011074D01*
X0494100Y0011101D01*
X0493853Y0011135D01*
X0493607Y0011175D01*
X0493362Y0011220D01*
X0493118Y0011272D01*
X0492875Y0011329D01*
X0492634Y0011393D01*
X0492395Y0011462D01*
X0492157Y0011538D01*
X0491921Y0011619D01*
X0491687Y0011706D01*
X0491456Y0011798D01*
X0491227Y0011897D01*
X0491000Y0012000D01*
X0490776Y0012110D01*
X0490555Y0012225D01*
X0490336Y0012345D01*
X0490121Y0012470D01*
X0489908Y0012601D01*
X0489699Y0012737D01*
X0489494Y0012878D01*
X0489292Y0013024D01*
X0489093Y0013175D01*
X0488899Y0013331D01*
X0488708Y0013492D01*
X0488521Y0013657D01*
X0488338Y0013827D01*
X0488160Y0014001D01*
X0487986Y0014179D01*
X0487816Y0014362D01*
X0487651Y0014549D01*
X0487490Y0014740D01*
X0487334Y0014934D01*
X0487183Y0015133D01*
X0487037Y0015335D01*
X0486896Y0015540D01*
X0486760Y0015749D01*
X0486629Y0015962D01*
X0486504Y0016177D01*
X0486384Y0016396D01*
X0486269Y0016617D01*
X0486159Y0016841D01*
X0486056Y0017068D01*
X0485957Y0017297D01*
X0485865Y0017528D01*
X0485778Y0017762D01*
X0485697Y0017998D01*
X0485621Y0018236D01*
X0485552Y0018475D01*
X0485488Y0018716D01*
X0485431Y0018959D01*
X0485379Y0019203D01*
X0485334Y0019448D01*
X0485294Y0019694D01*
X0485260Y0019941D01*
X0485233Y0020189D01*
X0485212Y0020438D01*
X0485196Y0020686D01*
X0485187Y0020936D01*
X0485184Y0021185D01*
X0485184Y0450319D02*
X0485187Y0450568D01*
X0485196Y0450818D01*
X0485212Y0451066D01*
X0485233Y0451315D01*
X0485260Y0451563D01*
X0485294Y0451810D01*
X0485334Y0452056D01*
X0485379Y0452301D01*
X0485431Y0452545D01*
X0485488Y0452788D01*
X0485552Y0453029D01*
X0485621Y0453268D01*
X0485697Y0453506D01*
X0485778Y0453742D01*
X0485865Y0453976D01*
X0485957Y0454207D01*
X0486056Y0454436D01*
X0486159Y0454663D01*
X0486269Y0454887D01*
X0486384Y0455108D01*
X0486504Y0455327D01*
X0486629Y0455542D01*
X0486760Y0455755D01*
X0486896Y0455964D01*
X0487037Y0456169D01*
X0487183Y0456371D01*
X0487334Y0456570D01*
X0487490Y0456764D01*
X0487651Y0456955D01*
X0487816Y0457142D01*
X0487986Y0457325D01*
X0488160Y0457503D01*
X0488338Y0457677D01*
X0488521Y0457847D01*
X0488708Y0458012D01*
X0488899Y0458173D01*
X0489093Y0458329D01*
X0489292Y0458480D01*
X0489494Y0458626D01*
X0489699Y0458767D01*
X0489908Y0458903D01*
X0490121Y0459034D01*
X0490336Y0459159D01*
X0490555Y0459279D01*
X0490776Y0459394D01*
X0491000Y0459504D01*
X0491227Y0459607D01*
X0491456Y0459706D01*
X0491687Y0459798D01*
X0491921Y0459885D01*
X0492157Y0459966D01*
X0492395Y0460042D01*
X0492634Y0460111D01*
X0492875Y0460175D01*
X0493118Y0460232D01*
X0493362Y0460284D01*
X0493607Y0460329D01*
X0493853Y0460369D01*
X0494100Y0460403D01*
X0494348Y0460430D01*
X0494597Y0460451D01*
X0494845Y0460467D01*
X0495095Y0460476D01*
X0495344Y0460479D01*
X0495593Y0460476D01*
X0495843Y0460467D01*
X0496091Y0460451D01*
X0496340Y0460430D01*
X0496588Y0460403D01*
X0496835Y0460369D01*
X0497081Y0460329D01*
X0497326Y0460284D01*
X0497570Y0460232D01*
X0497813Y0460175D01*
X0498054Y0460111D01*
X0498293Y0460042D01*
X0498531Y0459966D01*
X0498767Y0459885D01*
X0499001Y0459798D01*
X0499232Y0459706D01*
X0499461Y0459607D01*
X0499688Y0459504D01*
X0499912Y0459394D01*
X0500133Y0459279D01*
X0500352Y0459159D01*
X0500567Y0459034D01*
X0500780Y0458903D01*
X0500989Y0458767D01*
X0501194Y0458626D01*
X0501396Y0458480D01*
X0501595Y0458329D01*
X0501789Y0458173D01*
X0501980Y0458012D01*
X0502167Y0457847D01*
X0502350Y0457677D01*
X0502528Y0457503D01*
X0502702Y0457325D01*
X0502872Y0457142D01*
X0503037Y0456955D01*
X0503198Y0456764D01*
X0503354Y0456570D01*
X0503505Y0456371D01*
X0503651Y0456169D01*
X0503792Y0455964D01*
X0503928Y0455755D01*
X0504059Y0455542D01*
X0504184Y0455327D01*
X0504304Y0455108D01*
X0504419Y0454887D01*
X0504529Y0454663D01*
X0504632Y0454436D01*
X0504731Y0454207D01*
X0504823Y0453976D01*
X0504910Y0453742D01*
X0504991Y0453506D01*
X0505067Y0453268D01*
X0505136Y0453029D01*
X0505200Y0452788D01*
X0505257Y0452545D01*
X0505309Y0452301D01*
X0505354Y0452056D01*
X0505394Y0451810D01*
X0505428Y0451563D01*
X0505455Y0451315D01*
X0505476Y0451066D01*
X0505492Y0450818D01*
X0505501Y0450568D01*
X0505504Y0450319D01*
X0505501Y0450070D01*
X0505492Y0449820D01*
X0505476Y0449572D01*
X0505455Y0449323D01*
X0505428Y0449075D01*
X0505394Y0448828D01*
X0505354Y0448582D01*
X0505309Y0448337D01*
X0505257Y0448093D01*
X0505200Y0447850D01*
X0505136Y0447609D01*
X0505067Y0447370D01*
X0504991Y0447132D01*
X0504910Y0446896D01*
X0504823Y0446662D01*
X0504731Y0446431D01*
X0504632Y0446202D01*
X0504529Y0445975D01*
X0504419Y0445751D01*
X0504304Y0445530D01*
X0504184Y0445311D01*
X0504059Y0445096D01*
X0503928Y0444883D01*
X0503792Y0444674D01*
X0503651Y0444469D01*
X0503505Y0444267D01*
X0503354Y0444068D01*
X0503198Y0443874D01*
X0503037Y0443683D01*
X0502872Y0443496D01*
X0502702Y0443313D01*
X0502528Y0443135D01*
X0502350Y0442961D01*
X0502167Y0442791D01*
X0501980Y0442626D01*
X0501789Y0442465D01*
X0501595Y0442309D01*
X0501396Y0442158D01*
X0501194Y0442012D01*
X0500989Y0441871D01*
X0500780Y0441735D01*
X0500567Y0441604D01*
X0500352Y0441479D01*
X0500133Y0441359D01*
X0499912Y0441244D01*
X0499688Y0441134D01*
X0499461Y0441031D01*
X0499232Y0440932D01*
X0499001Y0440840D01*
X0498767Y0440753D01*
X0498531Y0440672D01*
X0498293Y0440596D01*
X0498054Y0440527D01*
X0497813Y0440463D01*
X0497570Y0440406D01*
X0497326Y0440354D01*
X0497081Y0440309D01*
X0496835Y0440269D01*
X0496588Y0440235D01*
X0496340Y0440208D01*
X0496091Y0440187D01*
X0495843Y0440171D01*
X0495593Y0440162D01*
X0495344Y0440159D01*
X0495095Y0440162D01*
X0494845Y0440171D01*
X0494597Y0440187D01*
X0494348Y0440208D01*
X0494100Y0440235D01*
X0493853Y0440269D01*
X0493607Y0440309D01*
X0493362Y0440354D01*
X0493118Y0440406D01*
X0492875Y0440463D01*
X0492634Y0440527D01*
X0492395Y0440596D01*
X0492157Y0440672D01*
X0491921Y0440753D01*
X0491687Y0440840D01*
X0491456Y0440932D01*
X0491227Y0441031D01*
X0491000Y0441134D01*
X0490776Y0441244D01*
X0490555Y0441359D01*
X0490336Y0441479D01*
X0490121Y0441604D01*
X0489908Y0441735D01*
X0489699Y0441871D01*
X0489494Y0442012D01*
X0489292Y0442158D01*
X0489093Y0442309D01*
X0488899Y0442465D01*
X0488708Y0442626D01*
X0488521Y0442791D01*
X0488338Y0442961D01*
X0488160Y0443135D01*
X0487986Y0443313D01*
X0487816Y0443496D01*
X0487651Y0443683D01*
X0487490Y0443874D01*
X0487334Y0444068D01*
X0487183Y0444267D01*
X0487037Y0444469D01*
X0486896Y0444674D01*
X0486760Y0444883D01*
X0486629Y0445096D01*
X0486504Y0445311D01*
X0486384Y0445530D01*
X0486269Y0445751D01*
X0486159Y0445975D01*
X0486056Y0446202D01*
X0485957Y0446431D01*
X0485865Y0446662D01*
X0485778Y0446896D01*
X0485697Y0447132D01*
X0485621Y0447370D01*
X0485552Y0447609D01*
X0485488Y0447850D01*
X0485431Y0448093D01*
X0485379Y0448337D01*
X0485334Y0448582D01*
X0485294Y0448828D01*
X0485260Y0449075D01*
X0485233Y0449323D01*
X0485212Y0449572D01*
X0485196Y0449820D01*
X0485187Y0450070D01*
X0485184Y0450319D01*
X0062094Y0450319D02*
X0062097Y0450565D01*
X0062106Y0450811D01*
X0062121Y0451056D01*
X0062142Y0451301D01*
X0062169Y0451546D01*
X0062202Y0451790D01*
X0062242Y0452032D01*
X0062287Y0452274D01*
X0062338Y0452515D01*
X0062394Y0452754D01*
X0062457Y0452992D01*
X0062526Y0453228D01*
X0062600Y0453463D01*
X0062680Y0453695D01*
X0062766Y0453926D01*
X0062857Y0454154D01*
X0062954Y0454380D01*
X0063056Y0454604D01*
X0063164Y0454825D01*
X0063277Y0455043D01*
X0063396Y0455259D01*
X0063520Y0455471D01*
X0063649Y0455681D01*
X0063783Y0455887D01*
X0063922Y0456090D01*
X0064066Y0456289D01*
X0064215Y0456485D01*
X0064369Y0456677D01*
X0064527Y0456865D01*
X0064690Y0457049D01*
X0064858Y0457230D01*
X0065029Y0457406D01*
X0065205Y0457577D01*
X0065386Y0457745D01*
X0065570Y0457908D01*
X0065758Y0458066D01*
X0065950Y0458220D01*
X0066146Y0458369D01*
X0066345Y0458513D01*
X0066548Y0458652D01*
X0066754Y0458786D01*
X0066964Y0458915D01*
X0067176Y0459039D01*
X0067392Y0459158D01*
X0067610Y0459271D01*
X0067831Y0459379D01*
X0068055Y0459481D01*
X0068281Y0459578D01*
X0068509Y0459669D01*
X0068740Y0459755D01*
X0068972Y0459835D01*
X0069207Y0459909D01*
X0069443Y0459978D01*
X0069681Y0460041D01*
X0069920Y0460097D01*
X0070161Y0460148D01*
X0070403Y0460193D01*
X0070645Y0460233D01*
X0070889Y0460266D01*
X0071134Y0460293D01*
X0071379Y0460314D01*
X0071624Y0460329D01*
X0071870Y0460338D01*
X0072116Y0460341D01*
X0072362Y0460338D01*
X0072608Y0460329D01*
X0072853Y0460314D01*
X0073098Y0460293D01*
X0073343Y0460266D01*
X0073587Y0460233D01*
X0073829Y0460193D01*
X0074071Y0460148D01*
X0074312Y0460097D01*
X0074551Y0460041D01*
X0074789Y0459978D01*
X0075025Y0459909D01*
X0075260Y0459835D01*
X0075492Y0459755D01*
X0075723Y0459669D01*
X0075951Y0459578D01*
X0076177Y0459481D01*
X0076401Y0459379D01*
X0076622Y0459271D01*
X0076840Y0459158D01*
X0077056Y0459039D01*
X0077268Y0458915D01*
X0077478Y0458786D01*
X0077684Y0458652D01*
X0077887Y0458513D01*
X0078086Y0458369D01*
X0078282Y0458220D01*
X0078474Y0458066D01*
X0078662Y0457908D01*
X0078846Y0457745D01*
X0079027Y0457577D01*
X0079203Y0457406D01*
X0079374Y0457230D01*
X0079542Y0457049D01*
X0079705Y0456865D01*
X0079863Y0456677D01*
X0080017Y0456485D01*
X0080166Y0456289D01*
X0080310Y0456090D01*
X0080449Y0455887D01*
X0080583Y0455681D01*
X0080712Y0455471D01*
X0080836Y0455259D01*
X0080955Y0455043D01*
X0081068Y0454825D01*
X0081176Y0454604D01*
X0081278Y0454380D01*
X0081375Y0454154D01*
X0081466Y0453926D01*
X0081552Y0453695D01*
X0081632Y0453463D01*
X0081706Y0453228D01*
X0081775Y0452992D01*
X0081838Y0452754D01*
X0081894Y0452515D01*
X0081945Y0452274D01*
X0081990Y0452032D01*
X0082030Y0451790D01*
X0082063Y0451546D01*
X0082090Y0451301D01*
X0082111Y0451056D01*
X0082126Y0450811D01*
X0082135Y0450565D01*
X0082138Y0450319D01*
X0082135Y0450073D01*
X0082126Y0449827D01*
X0082111Y0449582D01*
X0082090Y0449337D01*
X0082063Y0449092D01*
X0082030Y0448848D01*
X0081990Y0448606D01*
X0081945Y0448364D01*
X0081894Y0448123D01*
X0081838Y0447884D01*
X0081775Y0447646D01*
X0081706Y0447410D01*
X0081632Y0447175D01*
X0081552Y0446943D01*
X0081466Y0446712D01*
X0081375Y0446484D01*
X0081278Y0446258D01*
X0081176Y0446034D01*
X0081068Y0445813D01*
X0080955Y0445595D01*
X0080836Y0445379D01*
X0080712Y0445167D01*
X0080583Y0444957D01*
X0080449Y0444751D01*
X0080310Y0444548D01*
X0080166Y0444349D01*
X0080017Y0444153D01*
X0079863Y0443961D01*
X0079705Y0443773D01*
X0079542Y0443589D01*
X0079374Y0443408D01*
X0079203Y0443232D01*
X0079027Y0443061D01*
X0078846Y0442893D01*
X0078662Y0442730D01*
X0078474Y0442572D01*
X0078282Y0442418D01*
X0078086Y0442269D01*
X0077887Y0442125D01*
X0077684Y0441986D01*
X0077478Y0441852D01*
X0077268Y0441723D01*
X0077056Y0441599D01*
X0076840Y0441480D01*
X0076622Y0441367D01*
X0076401Y0441259D01*
X0076177Y0441157D01*
X0075951Y0441060D01*
X0075723Y0440969D01*
X0075492Y0440883D01*
X0075260Y0440803D01*
X0075025Y0440729D01*
X0074789Y0440660D01*
X0074551Y0440597D01*
X0074312Y0440541D01*
X0074071Y0440490D01*
X0073829Y0440445D01*
X0073587Y0440405D01*
X0073343Y0440372D01*
X0073098Y0440345D01*
X0072853Y0440324D01*
X0072608Y0440309D01*
X0072362Y0440300D01*
X0072116Y0440297D01*
X0071870Y0440300D01*
X0071624Y0440309D01*
X0071379Y0440324D01*
X0071134Y0440345D01*
X0070889Y0440372D01*
X0070645Y0440405D01*
X0070403Y0440445D01*
X0070161Y0440490D01*
X0069920Y0440541D01*
X0069681Y0440597D01*
X0069443Y0440660D01*
X0069207Y0440729D01*
X0068972Y0440803D01*
X0068740Y0440883D01*
X0068509Y0440969D01*
X0068281Y0441060D01*
X0068055Y0441157D01*
X0067831Y0441259D01*
X0067610Y0441367D01*
X0067392Y0441480D01*
X0067176Y0441599D01*
X0066964Y0441723D01*
X0066754Y0441852D01*
X0066548Y0441986D01*
X0066345Y0442125D01*
X0066146Y0442269D01*
X0065950Y0442418D01*
X0065758Y0442572D01*
X0065570Y0442730D01*
X0065386Y0442893D01*
X0065205Y0443061D01*
X0065029Y0443232D01*
X0064858Y0443408D01*
X0064690Y0443589D01*
X0064527Y0443773D01*
X0064369Y0443961D01*
X0064215Y0444153D01*
X0064066Y0444349D01*
X0063922Y0444548D01*
X0063783Y0444751D01*
X0063649Y0444957D01*
X0063520Y0445167D01*
X0063396Y0445379D01*
X0063277Y0445595D01*
X0063164Y0445813D01*
X0063056Y0446034D01*
X0062954Y0446258D01*
X0062857Y0446484D01*
X0062766Y0446712D01*
X0062680Y0446943D01*
X0062600Y0447175D01*
X0062526Y0447410D01*
X0062457Y0447646D01*
X0062394Y0447884D01*
X0062338Y0448123D01*
X0062287Y0448364D01*
X0062242Y0448606D01*
X0062202Y0448848D01*
X0062169Y0449092D01*
X0062142Y0449337D01*
X0062121Y0449582D01*
X0062106Y0449827D01*
X0062097Y0450073D01*
X0062094Y0450319D01*
D12*
X0216604Y0420055D03*
X0216604Y0401055D03*
D13*
X0087707Y0378469D03*
X0087707Y0368626D03*
X0087707Y0358783D03*
X0087707Y0348941D03*
X0087707Y0339098D03*
X0087707Y0329256D03*
X0087707Y0319413D03*
X0087707Y0309571D03*
X0087707Y0299728D03*
X0087707Y0289886D03*
X0087707Y0280043D03*
X0087707Y0270201D03*
X0087707Y0260358D03*
X0087707Y0250516D03*
X0087707Y0240673D03*
X0087707Y0230831D03*
X0087707Y0220988D03*
X0087707Y0211146D03*
X0087707Y0201303D03*
X0087707Y0191461D03*
X0087707Y0181618D03*
X0087707Y0171776D03*
X0087707Y0161933D03*
X0087707Y0152091D03*
X0087707Y0142248D03*
X0087707Y0132406D03*
X0087707Y0122563D03*
X0087707Y0112720D03*
X0087707Y0102878D03*
X0087707Y0093035D03*
X0068022Y0093035D03*
X0068022Y0102878D03*
X0068022Y0112720D03*
X0068022Y0122563D03*
X0068022Y0132406D03*
X0068022Y0142248D03*
X0068022Y0152091D03*
X0068022Y0161933D03*
X0068022Y0171776D03*
X0068022Y0181618D03*
X0068022Y0191461D03*
X0068022Y0201303D03*
X0068022Y0211146D03*
X0068022Y0220988D03*
X0068022Y0230831D03*
X0068022Y0240673D03*
X0068022Y0250516D03*
X0068022Y0260358D03*
X0068022Y0270201D03*
X0068022Y0280043D03*
X0068022Y0289886D03*
X0068022Y0299728D03*
X0068022Y0309571D03*
X0068022Y0319413D03*
X0068022Y0329256D03*
X0068022Y0339098D03*
X0068022Y0348941D03*
X0068022Y0358783D03*
X0068022Y0368626D03*
X0068022Y0378469D03*
D14*
X0092938Y0395949D02*
X0098538Y0395949D01*
X0098538Y0405949D02*
X0092938Y0405949D01*
X0092938Y0415949D02*
X0098538Y0415949D01*
X0098538Y0425949D02*
X0092938Y0425949D01*
X0225812Y0347209D02*
X0231412Y0347209D01*
X0231412Y0337209D02*
X0225812Y0337209D01*
X0225812Y0327209D02*
X0231412Y0327209D01*
X0231412Y0317209D02*
X0225812Y0317209D01*
X0222554Y0070555D02*
X0216954Y0070555D01*
X0210349Y0070555D02*
X0204749Y0070555D01*
X0198144Y0070555D02*
X0192544Y0070555D01*
X0185940Y0070555D02*
X0180340Y0070555D01*
X0180340Y0060555D02*
X0185940Y0060555D01*
X0192544Y0060555D02*
X0198144Y0060555D01*
X0204749Y0060555D02*
X0210349Y0060555D01*
X0216954Y0060555D02*
X0222554Y0060555D01*
X0222554Y0050555D02*
X0216954Y0050555D01*
X0210349Y0050555D02*
X0204749Y0050555D01*
X0198144Y0050555D02*
X0192544Y0050555D01*
X0185940Y0050555D02*
X0180340Y0050555D01*
X0197037Y0025954D02*
X0197037Y0020354D01*
X0207037Y0020354D02*
X0207037Y0025954D01*
D15*
X0218593Y0125043D03*
X0228593Y0125043D03*
X0228593Y0135043D03*
X0228593Y0145043D03*
X0228593Y0155043D03*
X0218593Y0155043D03*
X0218593Y0145043D03*
X0218593Y0135043D03*
X0195344Y0135043D03*
X0185344Y0135043D03*
X0185344Y0125043D03*
X0195344Y0125043D03*
X0195344Y0145043D03*
X0185344Y0145043D03*
X0185344Y0155043D03*
X0195344Y0155043D03*
X0195344Y0165043D03*
X0185344Y0165043D03*
X0185344Y0175043D03*
X0195344Y0175043D03*
X0195344Y0185043D03*
X0185344Y0185043D03*
X0185344Y0195043D03*
X0195344Y0195043D03*
X0195344Y0205043D03*
X0185344Y0205043D03*
X0185344Y0215043D03*
X0195344Y0215043D03*
X0195344Y0225043D03*
X0185344Y0225043D03*
X0185344Y0235043D03*
X0195344Y0235043D03*
X0195344Y0245043D03*
X0185344Y0245043D03*
X0185344Y0255043D03*
X0195344Y0255043D03*
X0195344Y0265043D03*
X0185344Y0265043D03*
X0185344Y0275043D03*
X0195344Y0275043D03*
X0195344Y0285043D03*
X0185344Y0285043D03*
X0218593Y0285043D03*
X0228593Y0285043D03*
X0228593Y0275043D03*
X0228593Y0265043D03*
X0228593Y0255043D03*
X0218593Y0255043D03*
X0218593Y0265043D03*
X0218593Y0275043D03*
X0218593Y0245043D03*
X0228593Y0245043D03*
X0228593Y0235043D03*
X0228593Y0225043D03*
X0228593Y0215043D03*
X0228593Y0205043D03*
X0228593Y0195043D03*
X0228593Y0185043D03*
X0228593Y0175043D03*
X0228593Y0165043D03*
X0218593Y0165043D03*
X0218593Y0175043D03*
X0218593Y0185043D03*
X0218593Y0195043D03*
X0218593Y0205043D03*
X0218593Y0215043D03*
X0218593Y0225043D03*
X0218593Y0235043D03*
D16*
X0191014Y0386736D03*
X0191014Y0391736D03*
X0191014Y0396736D03*
X0191014Y0401736D03*
X0191014Y0406736D03*
X0191014Y0411736D03*
X0191014Y0416736D03*
X0191014Y0421736D03*
X0191014Y0426736D03*
X0191014Y0431736D03*
X0191014Y0436736D03*
X0127234Y0436736D03*
X0127234Y0431736D03*
X0127234Y0426736D03*
X0127234Y0421736D03*
X0127234Y0416736D03*
X0127234Y0411736D03*
X0127234Y0406736D03*
X0127234Y0401736D03*
X0127234Y0396736D03*
X0127234Y0391736D03*
X0127234Y0386736D03*
X0105069Y0075161D03*
X0105069Y0070161D03*
X0105069Y0065161D03*
X0105069Y0060161D03*
X0105069Y0055161D03*
X0105069Y0050161D03*
X0105069Y0045161D03*
X0158848Y0045161D03*
X0158848Y0050161D03*
X0158848Y0055161D03*
X0158848Y0060161D03*
X0158848Y0065161D03*
X0158848Y0070161D03*
X0158848Y0075161D03*
D17*
X0151959Y0082051D03*
X0146959Y0082051D03*
X0141959Y0082051D03*
X0136959Y0082051D03*
X0131959Y0082051D03*
X0126959Y0082051D03*
X0121959Y0082051D03*
X0116959Y0082051D03*
X0111959Y0082051D03*
X0111959Y0038272D03*
X0116959Y0038272D03*
X0121959Y0038272D03*
X0126959Y0038272D03*
X0131959Y0038272D03*
X0136959Y0038272D03*
X0141959Y0038272D03*
X0146959Y0038272D03*
X0151959Y0038272D03*
X0154124Y0379846D03*
X0149124Y0379846D03*
X0144124Y0379846D03*
X0139124Y0379846D03*
X0134124Y0379846D03*
X0159124Y0379846D03*
X0164124Y0379846D03*
X0169124Y0379846D03*
X0174124Y0379846D03*
X0179124Y0379846D03*
X0184124Y0379846D03*
X0184124Y0443626D03*
X0179124Y0443626D03*
X0174124Y0443626D03*
X0169124Y0443626D03*
X0164124Y0443626D03*
X0159124Y0443626D03*
X0154124Y0443626D03*
X0149124Y0443626D03*
X0144124Y0443626D03*
X0139124Y0443626D03*
X0134124Y0443626D03*
D18*
X0152628Y0255043D03*
X0160108Y0255043D03*
X0160108Y0165280D03*
X0152628Y0165280D03*
X0152628Y0155043D03*
X0160108Y0155043D03*
X0160108Y0144807D03*
X0152628Y0144807D03*
X0152628Y0125122D03*
X0160108Y0125122D03*
X0134911Y0021185D03*
X0127431Y0021185D03*
D19*
X0217785Y0440673D03*
X0217785Y0448154D03*
D20*
X0074085Y0072957D03*
X0074085Y0048154D03*
M02*
