G75*
%MOIN*%
%OFA0B0*%
%FSLAX25Y25*%
%IPPOS*%
%LPD*%
%AMOC8*
5,1,8,0,0,1.08239X$1,22.5*
%
%ADD10C,0.05906*%
%ADD11C,0.05200*%
%ADD12OC8,0.05937*%
%ADD13C,0.05600*%
%ADD14OC8,0.05600*%
%ADD15R,0.08661X0.02362*%
%ADD16R,0.02362X0.08661*%
%ADD17R,0.05118X0.05906*%
%ADD18R,0.05906X0.05118*%
%ADD19R,0.11024X0.09449*%
%ADD20C,0.03937*%
%ADD21R,0.03962X0.03962*%
%ADD22C,0.01969*%
%ADD23C,0.03150*%
%ADD24C,0.03962*%
%ADD25C,0.01000*%
%ADD26C,0.04000*%
D10*
X0056368Y0005437D02*
X0131171Y0005437D01*
X0207943Y0005437D01*
X0231565Y0005437D01*
X0343770Y0005437D01*
X0495344Y0005437D01*
X0484320Y0021185D02*
X0484323Y0021456D01*
X0484333Y0021726D01*
X0484350Y0021996D01*
X0484373Y0022266D01*
X0484403Y0022534D01*
X0484439Y0022803D01*
X0484482Y0023070D01*
X0484532Y0023336D01*
X0484588Y0023600D01*
X0484650Y0023864D01*
X0484719Y0024125D01*
X0484795Y0024385D01*
X0484876Y0024643D01*
X0484964Y0024899D01*
X0485059Y0025152D01*
X0485159Y0025404D01*
X0485266Y0025652D01*
X0485378Y0025898D01*
X0485497Y0026142D01*
X0485622Y0026382D01*
X0485752Y0026619D01*
X0485888Y0026852D01*
X0486030Y0027083D01*
X0486178Y0027310D01*
X0486331Y0027533D01*
X0486489Y0027752D01*
X0486653Y0027967D01*
X0486822Y0028179D01*
X0486997Y0028386D01*
X0487176Y0028588D01*
X0487360Y0028786D01*
X0487549Y0028980D01*
X0487743Y0029169D01*
X0487941Y0029353D01*
X0488143Y0029532D01*
X0488350Y0029707D01*
X0488562Y0029876D01*
X0488777Y0030040D01*
X0488996Y0030198D01*
X0489219Y0030351D01*
X0489446Y0030499D01*
X0489677Y0030641D01*
X0489910Y0030777D01*
X0490147Y0030907D01*
X0490387Y0031032D01*
X0490631Y0031151D01*
X0490877Y0031263D01*
X0491125Y0031370D01*
X0491377Y0031470D01*
X0491630Y0031565D01*
X0491886Y0031653D01*
X0492144Y0031734D01*
X0492404Y0031810D01*
X0492665Y0031879D01*
X0492929Y0031941D01*
X0493193Y0031997D01*
X0493459Y0032047D01*
X0493726Y0032090D01*
X0493995Y0032126D01*
X0494263Y0032156D01*
X0494533Y0032179D01*
X0494803Y0032196D01*
X0495073Y0032206D01*
X0495344Y0032209D01*
X0495615Y0032206D01*
X0495885Y0032196D01*
X0496155Y0032179D01*
X0496425Y0032156D01*
X0496693Y0032126D01*
X0496962Y0032090D01*
X0497229Y0032047D01*
X0497495Y0031997D01*
X0497759Y0031941D01*
X0498023Y0031879D01*
X0498284Y0031810D01*
X0498544Y0031734D01*
X0498802Y0031653D01*
X0499058Y0031565D01*
X0499311Y0031470D01*
X0499563Y0031370D01*
X0499811Y0031263D01*
X0500057Y0031151D01*
X0500301Y0031032D01*
X0500541Y0030907D01*
X0500778Y0030777D01*
X0501011Y0030641D01*
X0501242Y0030499D01*
X0501469Y0030351D01*
X0501692Y0030198D01*
X0501911Y0030040D01*
X0502126Y0029876D01*
X0502338Y0029707D01*
X0502545Y0029532D01*
X0502747Y0029353D01*
X0502945Y0029169D01*
X0503139Y0028980D01*
X0503328Y0028786D01*
X0503512Y0028588D01*
X0503691Y0028386D01*
X0503866Y0028179D01*
X0504035Y0027967D01*
X0504199Y0027752D01*
X0504357Y0027533D01*
X0504510Y0027310D01*
X0504658Y0027083D01*
X0504800Y0026852D01*
X0504936Y0026619D01*
X0505066Y0026382D01*
X0505191Y0026142D01*
X0505310Y0025898D01*
X0505422Y0025652D01*
X0505529Y0025404D01*
X0505629Y0025152D01*
X0505724Y0024899D01*
X0505812Y0024643D01*
X0505893Y0024385D01*
X0505969Y0024125D01*
X0506038Y0023864D01*
X0506100Y0023600D01*
X0506156Y0023336D01*
X0506206Y0023070D01*
X0506249Y0022803D01*
X0506285Y0022534D01*
X0506315Y0022266D01*
X0506338Y0021996D01*
X0506355Y0021726D01*
X0506365Y0021456D01*
X0506368Y0021185D01*
X0506365Y0020914D01*
X0506355Y0020644D01*
X0506338Y0020374D01*
X0506315Y0020104D01*
X0506285Y0019836D01*
X0506249Y0019567D01*
X0506206Y0019300D01*
X0506156Y0019034D01*
X0506100Y0018770D01*
X0506038Y0018506D01*
X0505969Y0018245D01*
X0505893Y0017985D01*
X0505812Y0017727D01*
X0505724Y0017471D01*
X0505629Y0017218D01*
X0505529Y0016966D01*
X0505422Y0016718D01*
X0505310Y0016472D01*
X0505191Y0016228D01*
X0505066Y0015988D01*
X0504936Y0015751D01*
X0504800Y0015518D01*
X0504658Y0015287D01*
X0504510Y0015060D01*
X0504357Y0014837D01*
X0504199Y0014618D01*
X0504035Y0014403D01*
X0503866Y0014191D01*
X0503691Y0013984D01*
X0503512Y0013782D01*
X0503328Y0013584D01*
X0503139Y0013390D01*
X0502945Y0013201D01*
X0502747Y0013017D01*
X0502545Y0012838D01*
X0502338Y0012663D01*
X0502126Y0012494D01*
X0501911Y0012330D01*
X0501692Y0012172D01*
X0501469Y0012019D01*
X0501242Y0011871D01*
X0501011Y0011729D01*
X0500778Y0011593D01*
X0500541Y0011463D01*
X0500301Y0011338D01*
X0500057Y0011219D01*
X0499811Y0011107D01*
X0499563Y0011000D01*
X0499311Y0010900D01*
X0499058Y0010805D01*
X0498802Y0010717D01*
X0498544Y0010636D01*
X0498284Y0010560D01*
X0498023Y0010491D01*
X0497759Y0010429D01*
X0497495Y0010373D01*
X0497229Y0010323D01*
X0496962Y0010280D01*
X0496693Y0010244D01*
X0496425Y0010214D01*
X0496155Y0010191D01*
X0495885Y0010174D01*
X0495615Y0010164D01*
X0495344Y0010161D01*
X0495073Y0010164D01*
X0494803Y0010174D01*
X0494533Y0010191D01*
X0494263Y0010214D01*
X0493995Y0010244D01*
X0493726Y0010280D01*
X0493459Y0010323D01*
X0493193Y0010373D01*
X0492929Y0010429D01*
X0492665Y0010491D01*
X0492404Y0010560D01*
X0492144Y0010636D01*
X0491886Y0010717D01*
X0491630Y0010805D01*
X0491377Y0010900D01*
X0491125Y0011000D01*
X0490877Y0011107D01*
X0490631Y0011219D01*
X0490387Y0011338D01*
X0490147Y0011463D01*
X0489910Y0011593D01*
X0489677Y0011729D01*
X0489446Y0011871D01*
X0489219Y0012019D01*
X0488996Y0012172D01*
X0488777Y0012330D01*
X0488562Y0012494D01*
X0488350Y0012663D01*
X0488143Y0012838D01*
X0487941Y0013017D01*
X0487743Y0013201D01*
X0487549Y0013390D01*
X0487360Y0013584D01*
X0487176Y0013782D01*
X0486997Y0013984D01*
X0486822Y0014191D01*
X0486653Y0014403D01*
X0486489Y0014618D01*
X0486331Y0014837D01*
X0486178Y0015060D01*
X0486030Y0015287D01*
X0485888Y0015518D01*
X0485752Y0015751D01*
X0485622Y0015988D01*
X0485497Y0016228D01*
X0485378Y0016472D01*
X0485266Y0016718D01*
X0485159Y0016966D01*
X0485059Y0017218D01*
X0484964Y0017471D01*
X0484876Y0017727D01*
X0484795Y0017985D01*
X0484719Y0018245D01*
X0484650Y0018506D01*
X0484588Y0018770D01*
X0484532Y0019034D01*
X0484482Y0019300D01*
X0484439Y0019567D01*
X0484403Y0019836D01*
X0484373Y0020104D01*
X0484350Y0020374D01*
X0484333Y0020644D01*
X0484323Y0020914D01*
X0484320Y0021185D01*
X0061092Y0021185D02*
X0061095Y0021456D01*
X0061105Y0021726D01*
X0061122Y0021996D01*
X0061145Y0022266D01*
X0061175Y0022534D01*
X0061211Y0022803D01*
X0061254Y0023070D01*
X0061304Y0023336D01*
X0061360Y0023600D01*
X0061422Y0023864D01*
X0061491Y0024125D01*
X0061567Y0024385D01*
X0061648Y0024643D01*
X0061736Y0024899D01*
X0061831Y0025152D01*
X0061931Y0025404D01*
X0062038Y0025652D01*
X0062150Y0025898D01*
X0062269Y0026142D01*
X0062394Y0026382D01*
X0062524Y0026619D01*
X0062660Y0026852D01*
X0062802Y0027083D01*
X0062950Y0027310D01*
X0063103Y0027533D01*
X0063261Y0027752D01*
X0063425Y0027967D01*
X0063594Y0028179D01*
X0063769Y0028386D01*
X0063948Y0028588D01*
X0064132Y0028786D01*
X0064321Y0028980D01*
X0064515Y0029169D01*
X0064713Y0029353D01*
X0064915Y0029532D01*
X0065122Y0029707D01*
X0065334Y0029876D01*
X0065549Y0030040D01*
X0065768Y0030198D01*
X0065991Y0030351D01*
X0066218Y0030499D01*
X0066449Y0030641D01*
X0066682Y0030777D01*
X0066919Y0030907D01*
X0067159Y0031032D01*
X0067403Y0031151D01*
X0067649Y0031263D01*
X0067897Y0031370D01*
X0068149Y0031470D01*
X0068402Y0031565D01*
X0068658Y0031653D01*
X0068916Y0031734D01*
X0069176Y0031810D01*
X0069437Y0031879D01*
X0069701Y0031941D01*
X0069965Y0031997D01*
X0070231Y0032047D01*
X0070498Y0032090D01*
X0070767Y0032126D01*
X0071035Y0032156D01*
X0071305Y0032179D01*
X0071575Y0032196D01*
X0071845Y0032206D01*
X0072116Y0032209D01*
X0072387Y0032206D01*
X0072657Y0032196D01*
X0072927Y0032179D01*
X0073197Y0032156D01*
X0073465Y0032126D01*
X0073734Y0032090D01*
X0074001Y0032047D01*
X0074267Y0031997D01*
X0074531Y0031941D01*
X0074795Y0031879D01*
X0075056Y0031810D01*
X0075316Y0031734D01*
X0075574Y0031653D01*
X0075830Y0031565D01*
X0076083Y0031470D01*
X0076335Y0031370D01*
X0076583Y0031263D01*
X0076829Y0031151D01*
X0077073Y0031032D01*
X0077313Y0030907D01*
X0077550Y0030777D01*
X0077783Y0030641D01*
X0078014Y0030499D01*
X0078241Y0030351D01*
X0078464Y0030198D01*
X0078683Y0030040D01*
X0078898Y0029876D01*
X0079110Y0029707D01*
X0079317Y0029532D01*
X0079519Y0029353D01*
X0079717Y0029169D01*
X0079911Y0028980D01*
X0080100Y0028786D01*
X0080284Y0028588D01*
X0080463Y0028386D01*
X0080638Y0028179D01*
X0080807Y0027967D01*
X0080971Y0027752D01*
X0081129Y0027533D01*
X0081282Y0027310D01*
X0081430Y0027083D01*
X0081572Y0026852D01*
X0081708Y0026619D01*
X0081838Y0026382D01*
X0081963Y0026142D01*
X0082082Y0025898D01*
X0082194Y0025652D01*
X0082301Y0025404D01*
X0082401Y0025152D01*
X0082496Y0024899D01*
X0082584Y0024643D01*
X0082665Y0024385D01*
X0082741Y0024125D01*
X0082810Y0023864D01*
X0082872Y0023600D01*
X0082928Y0023336D01*
X0082978Y0023070D01*
X0083021Y0022803D01*
X0083057Y0022534D01*
X0083087Y0022266D01*
X0083110Y0021996D01*
X0083127Y0021726D01*
X0083137Y0021456D01*
X0083140Y0021185D01*
X0083137Y0020914D01*
X0083127Y0020644D01*
X0083110Y0020374D01*
X0083087Y0020104D01*
X0083057Y0019836D01*
X0083021Y0019567D01*
X0082978Y0019300D01*
X0082928Y0019034D01*
X0082872Y0018770D01*
X0082810Y0018506D01*
X0082741Y0018245D01*
X0082665Y0017985D01*
X0082584Y0017727D01*
X0082496Y0017471D01*
X0082401Y0017218D01*
X0082301Y0016966D01*
X0082194Y0016718D01*
X0082082Y0016472D01*
X0081963Y0016228D01*
X0081838Y0015988D01*
X0081708Y0015751D01*
X0081572Y0015518D01*
X0081430Y0015287D01*
X0081282Y0015060D01*
X0081129Y0014837D01*
X0080971Y0014618D01*
X0080807Y0014403D01*
X0080638Y0014191D01*
X0080463Y0013984D01*
X0080284Y0013782D01*
X0080100Y0013584D01*
X0079911Y0013390D01*
X0079717Y0013201D01*
X0079519Y0013017D01*
X0079317Y0012838D01*
X0079110Y0012663D01*
X0078898Y0012494D01*
X0078683Y0012330D01*
X0078464Y0012172D01*
X0078241Y0012019D01*
X0078014Y0011871D01*
X0077783Y0011729D01*
X0077550Y0011593D01*
X0077313Y0011463D01*
X0077073Y0011338D01*
X0076829Y0011219D01*
X0076583Y0011107D01*
X0076335Y0011000D01*
X0076083Y0010900D01*
X0075830Y0010805D01*
X0075574Y0010717D01*
X0075316Y0010636D01*
X0075056Y0010560D01*
X0074795Y0010491D01*
X0074531Y0010429D01*
X0074267Y0010373D01*
X0074001Y0010323D01*
X0073734Y0010280D01*
X0073465Y0010244D01*
X0073197Y0010214D01*
X0072927Y0010191D01*
X0072657Y0010174D01*
X0072387Y0010164D01*
X0072116Y0010161D01*
X0071845Y0010164D01*
X0071575Y0010174D01*
X0071305Y0010191D01*
X0071035Y0010214D01*
X0070767Y0010244D01*
X0070498Y0010280D01*
X0070231Y0010323D01*
X0069965Y0010373D01*
X0069701Y0010429D01*
X0069437Y0010491D01*
X0069176Y0010560D01*
X0068916Y0010636D01*
X0068658Y0010717D01*
X0068402Y0010805D01*
X0068149Y0010900D01*
X0067897Y0011000D01*
X0067649Y0011107D01*
X0067403Y0011219D01*
X0067159Y0011338D01*
X0066919Y0011463D01*
X0066682Y0011593D01*
X0066449Y0011729D01*
X0066218Y0011871D01*
X0065991Y0012019D01*
X0065768Y0012172D01*
X0065549Y0012330D01*
X0065334Y0012494D01*
X0065122Y0012663D01*
X0064915Y0012838D01*
X0064713Y0013017D01*
X0064515Y0013201D01*
X0064321Y0013390D01*
X0064132Y0013584D01*
X0063948Y0013782D01*
X0063769Y0013984D01*
X0063594Y0014191D01*
X0063425Y0014403D01*
X0063261Y0014618D01*
X0063103Y0014837D01*
X0062950Y0015060D01*
X0062802Y0015287D01*
X0062660Y0015518D01*
X0062524Y0015751D01*
X0062394Y0015988D01*
X0062269Y0016228D01*
X0062150Y0016472D01*
X0062038Y0016718D01*
X0061931Y0016966D01*
X0061831Y0017218D01*
X0061736Y0017471D01*
X0061648Y0017727D01*
X0061567Y0017985D01*
X0061491Y0018245D01*
X0061422Y0018506D01*
X0061360Y0018770D01*
X0061304Y0019034D01*
X0061254Y0019300D01*
X0061211Y0019567D01*
X0061175Y0019836D01*
X0061145Y0020104D01*
X0061122Y0020374D01*
X0061105Y0020644D01*
X0061095Y0020914D01*
X0061092Y0021185D01*
X0056368Y0005437D02*
X0056368Y0054650D01*
X0056368Y0068429D01*
X0056368Y0349925D01*
X0056368Y0405043D01*
X0056368Y0408980D01*
X0056368Y0410949D01*
X0056368Y0422760D01*
X0056368Y0466067D01*
X0160699Y0466067D01*
X0167785Y0466067D01*
X0212274Y0466067D01*
X0235502Y0466067D01*
X0294557Y0466067D01*
X0495344Y0466067D01*
X0484320Y0450319D02*
X0484323Y0450590D01*
X0484333Y0450860D01*
X0484350Y0451130D01*
X0484373Y0451400D01*
X0484403Y0451668D01*
X0484439Y0451937D01*
X0484482Y0452204D01*
X0484532Y0452470D01*
X0484588Y0452734D01*
X0484650Y0452998D01*
X0484719Y0453259D01*
X0484795Y0453519D01*
X0484876Y0453777D01*
X0484964Y0454033D01*
X0485059Y0454286D01*
X0485159Y0454538D01*
X0485266Y0454786D01*
X0485378Y0455032D01*
X0485497Y0455276D01*
X0485622Y0455516D01*
X0485752Y0455753D01*
X0485888Y0455986D01*
X0486030Y0456217D01*
X0486178Y0456444D01*
X0486331Y0456667D01*
X0486489Y0456886D01*
X0486653Y0457101D01*
X0486822Y0457313D01*
X0486997Y0457520D01*
X0487176Y0457722D01*
X0487360Y0457920D01*
X0487549Y0458114D01*
X0487743Y0458303D01*
X0487941Y0458487D01*
X0488143Y0458666D01*
X0488350Y0458841D01*
X0488562Y0459010D01*
X0488777Y0459174D01*
X0488996Y0459332D01*
X0489219Y0459485D01*
X0489446Y0459633D01*
X0489677Y0459775D01*
X0489910Y0459911D01*
X0490147Y0460041D01*
X0490387Y0460166D01*
X0490631Y0460285D01*
X0490877Y0460397D01*
X0491125Y0460504D01*
X0491377Y0460604D01*
X0491630Y0460699D01*
X0491886Y0460787D01*
X0492144Y0460868D01*
X0492404Y0460944D01*
X0492665Y0461013D01*
X0492929Y0461075D01*
X0493193Y0461131D01*
X0493459Y0461181D01*
X0493726Y0461224D01*
X0493995Y0461260D01*
X0494263Y0461290D01*
X0494533Y0461313D01*
X0494803Y0461330D01*
X0495073Y0461340D01*
X0495344Y0461343D01*
X0495615Y0461340D01*
X0495885Y0461330D01*
X0496155Y0461313D01*
X0496425Y0461290D01*
X0496693Y0461260D01*
X0496962Y0461224D01*
X0497229Y0461181D01*
X0497495Y0461131D01*
X0497759Y0461075D01*
X0498023Y0461013D01*
X0498284Y0460944D01*
X0498544Y0460868D01*
X0498802Y0460787D01*
X0499058Y0460699D01*
X0499311Y0460604D01*
X0499563Y0460504D01*
X0499811Y0460397D01*
X0500057Y0460285D01*
X0500301Y0460166D01*
X0500541Y0460041D01*
X0500778Y0459911D01*
X0501011Y0459775D01*
X0501242Y0459633D01*
X0501469Y0459485D01*
X0501692Y0459332D01*
X0501911Y0459174D01*
X0502126Y0459010D01*
X0502338Y0458841D01*
X0502545Y0458666D01*
X0502747Y0458487D01*
X0502945Y0458303D01*
X0503139Y0458114D01*
X0503328Y0457920D01*
X0503512Y0457722D01*
X0503691Y0457520D01*
X0503866Y0457313D01*
X0504035Y0457101D01*
X0504199Y0456886D01*
X0504357Y0456667D01*
X0504510Y0456444D01*
X0504658Y0456217D01*
X0504800Y0455986D01*
X0504936Y0455753D01*
X0505066Y0455516D01*
X0505191Y0455276D01*
X0505310Y0455032D01*
X0505422Y0454786D01*
X0505529Y0454538D01*
X0505629Y0454286D01*
X0505724Y0454033D01*
X0505812Y0453777D01*
X0505893Y0453519D01*
X0505969Y0453259D01*
X0506038Y0452998D01*
X0506100Y0452734D01*
X0506156Y0452470D01*
X0506206Y0452204D01*
X0506249Y0451937D01*
X0506285Y0451668D01*
X0506315Y0451400D01*
X0506338Y0451130D01*
X0506355Y0450860D01*
X0506365Y0450590D01*
X0506368Y0450319D01*
X0506365Y0450048D01*
X0506355Y0449778D01*
X0506338Y0449508D01*
X0506315Y0449238D01*
X0506285Y0448970D01*
X0506249Y0448701D01*
X0506206Y0448434D01*
X0506156Y0448168D01*
X0506100Y0447904D01*
X0506038Y0447640D01*
X0505969Y0447379D01*
X0505893Y0447119D01*
X0505812Y0446861D01*
X0505724Y0446605D01*
X0505629Y0446352D01*
X0505529Y0446100D01*
X0505422Y0445852D01*
X0505310Y0445606D01*
X0505191Y0445362D01*
X0505066Y0445122D01*
X0504936Y0444885D01*
X0504800Y0444652D01*
X0504658Y0444421D01*
X0504510Y0444194D01*
X0504357Y0443971D01*
X0504199Y0443752D01*
X0504035Y0443537D01*
X0503866Y0443325D01*
X0503691Y0443118D01*
X0503512Y0442916D01*
X0503328Y0442718D01*
X0503139Y0442524D01*
X0502945Y0442335D01*
X0502747Y0442151D01*
X0502545Y0441972D01*
X0502338Y0441797D01*
X0502126Y0441628D01*
X0501911Y0441464D01*
X0501692Y0441306D01*
X0501469Y0441153D01*
X0501242Y0441005D01*
X0501011Y0440863D01*
X0500778Y0440727D01*
X0500541Y0440597D01*
X0500301Y0440472D01*
X0500057Y0440353D01*
X0499811Y0440241D01*
X0499563Y0440134D01*
X0499311Y0440034D01*
X0499058Y0439939D01*
X0498802Y0439851D01*
X0498544Y0439770D01*
X0498284Y0439694D01*
X0498023Y0439625D01*
X0497759Y0439563D01*
X0497495Y0439507D01*
X0497229Y0439457D01*
X0496962Y0439414D01*
X0496693Y0439378D01*
X0496425Y0439348D01*
X0496155Y0439325D01*
X0495885Y0439308D01*
X0495615Y0439298D01*
X0495344Y0439295D01*
X0495073Y0439298D01*
X0494803Y0439308D01*
X0494533Y0439325D01*
X0494263Y0439348D01*
X0493995Y0439378D01*
X0493726Y0439414D01*
X0493459Y0439457D01*
X0493193Y0439507D01*
X0492929Y0439563D01*
X0492665Y0439625D01*
X0492404Y0439694D01*
X0492144Y0439770D01*
X0491886Y0439851D01*
X0491630Y0439939D01*
X0491377Y0440034D01*
X0491125Y0440134D01*
X0490877Y0440241D01*
X0490631Y0440353D01*
X0490387Y0440472D01*
X0490147Y0440597D01*
X0489910Y0440727D01*
X0489677Y0440863D01*
X0489446Y0441005D01*
X0489219Y0441153D01*
X0488996Y0441306D01*
X0488777Y0441464D01*
X0488562Y0441628D01*
X0488350Y0441797D01*
X0488143Y0441972D01*
X0487941Y0442151D01*
X0487743Y0442335D01*
X0487549Y0442524D01*
X0487360Y0442718D01*
X0487176Y0442916D01*
X0486997Y0443118D01*
X0486822Y0443325D01*
X0486653Y0443537D01*
X0486489Y0443752D01*
X0486331Y0443971D01*
X0486178Y0444194D01*
X0486030Y0444421D01*
X0485888Y0444652D01*
X0485752Y0444885D01*
X0485622Y0445122D01*
X0485497Y0445362D01*
X0485378Y0445606D01*
X0485266Y0445852D01*
X0485159Y0446100D01*
X0485059Y0446352D01*
X0484964Y0446605D01*
X0484876Y0446861D01*
X0484795Y0447119D01*
X0484719Y0447379D01*
X0484650Y0447640D01*
X0484588Y0447904D01*
X0484532Y0448168D01*
X0484482Y0448434D01*
X0484439Y0448701D01*
X0484403Y0448970D01*
X0484373Y0449238D01*
X0484350Y0449508D01*
X0484333Y0449778D01*
X0484323Y0450048D01*
X0484320Y0450319D01*
X0061092Y0450319D02*
X0061095Y0450590D01*
X0061105Y0450860D01*
X0061122Y0451130D01*
X0061145Y0451400D01*
X0061175Y0451668D01*
X0061211Y0451937D01*
X0061254Y0452204D01*
X0061304Y0452470D01*
X0061360Y0452734D01*
X0061422Y0452998D01*
X0061491Y0453259D01*
X0061567Y0453519D01*
X0061648Y0453777D01*
X0061736Y0454033D01*
X0061831Y0454286D01*
X0061931Y0454538D01*
X0062038Y0454786D01*
X0062150Y0455032D01*
X0062269Y0455276D01*
X0062394Y0455516D01*
X0062524Y0455753D01*
X0062660Y0455986D01*
X0062802Y0456217D01*
X0062950Y0456444D01*
X0063103Y0456667D01*
X0063261Y0456886D01*
X0063425Y0457101D01*
X0063594Y0457313D01*
X0063769Y0457520D01*
X0063948Y0457722D01*
X0064132Y0457920D01*
X0064321Y0458114D01*
X0064515Y0458303D01*
X0064713Y0458487D01*
X0064915Y0458666D01*
X0065122Y0458841D01*
X0065334Y0459010D01*
X0065549Y0459174D01*
X0065768Y0459332D01*
X0065991Y0459485D01*
X0066218Y0459633D01*
X0066449Y0459775D01*
X0066682Y0459911D01*
X0066919Y0460041D01*
X0067159Y0460166D01*
X0067403Y0460285D01*
X0067649Y0460397D01*
X0067897Y0460504D01*
X0068149Y0460604D01*
X0068402Y0460699D01*
X0068658Y0460787D01*
X0068916Y0460868D01*
X0069176Y0460944D01*
X0069437Y0461013D01*
X0069701Y0461075D01*
X0069965Y0461131D01*
X0070231Y0461181D01*
X0070498Y0461224D01*
X0070767Y0461260D01*
X0071035Y0461290D01*
X0071305Y0461313D01*
X0071575Y0461330D01*
X0071845Y0461340D01*
X0072116Y0461343D01*
X0072387Y0461340D01*
X0072657Y0461330D01*
X0072927Y0461313D01*
X0073197Y0461290D01*
X0073465Y0461260D01*
X0073734Y0461224D01*
X0074001Y0461181D01*
X0074267Y0461131D01*
X0074531Y0461075D01*
X0074795Y0461013D01*
X0075056Y0460944D01*
X0075316Y0460868D01*
X0075574Y0460787D01*
X0075830Y0460699D01*
X0076083Y0460604D01*
X0076335Y0460504D01*
X0076583Y0460397D01*
X0076829Y0460285D01*
X0077073Y0460166D01*
X0077313Y0460041D01*
X0077550Y0459911D01*
X0077783Y0459775D01*
X0078014Y0459633D01*
X0078241Y0459485D01*
X0078464Y0459332D01*
X0078683Y0459174D01*
X0078898Y0459010D01*
X0079110Y0458841D01*
X0079317Y0458666D01*
X0079519Y0458487D01*
X0079717Y0458303D01*
X0079911Y0458114D01*
X0080100Y0457920D01*
X0080284Y0457722D01*
X0080463Y0457520D01*
X0080638Y0457313D01*
X0080807Y0457101D01*
X0080971Y0456886D01*
X0081129Y0456667D01*
X0081282Y0456444D01*
X0081430Y0456217D01*
X0081572Y0455986D01*
X0081708Y0455753D01*
X0081838Y0455516D01*
X0081963Y0455276D01*
X0082082Y0455032D01*
X0082194Y0454786D01*
X0082301Y0454538D01*
X0082401Y0454286D01*
X0082496Y0454033D01*
X0082584Y0453777D01*
X0082665Y0453519D01*
X0082741Y0453259D01*
X0082810Y0452998D01*
X0082872Y0452734D01*
X0082928Y0452470D01*
X0082978Y0452204D01*
X0083021Y0451937D01*
X0083057Y0451668D01*
X0083087Y0451400D01*
X0083110Y0451130D01*
X0083127Y0450860D01*
X0083137Y0450590D01*
X0083140Y0450319D01*
X0083137Y0450048D01*
X0083127Y0449778D01*
X0083110Y0449508D01*
X0083087Y0449238D01*
X0083057Y0448970D01*
X0083021Y0448701D01*
X0082978Y0448434D01*
X0082928Y0448168D01*
X0082872Y0447904D01*
X0082810Y0447640D01*
X0082741Y0447379D01*
X0082665Y0447119D01*
X0082584Y0446861D01*
X0082496Y0446605D01*
X0082401Y0446352D01*
X0082301Y0446100D01*
X0082194Y0445852D01*
X0082082Y0445606D01*
X0081963Y0445362D01*
X0081838Y0445122D01*
X0081708Y0444885D01*
X0081572Y0444652D01*
X0081430Y0444421D01*
X0081282Y0444194D01*
X0081129Y0443971D01*
X0080971Y0443752D01*
X0080807Y0443537D01*
X0080638Y0443325D01*
X0080463Y0443118D01*
X0080284Y0442916D01*
X0080100Y0442718D01*
X0079911Y0442524D01*
X0079717Y0442335D01*
X0079519Y0442151D01*
X0079317Y0441972D01*
X0079110Y0441797D01*
X0078898Y0441628D01*
X0078683Y0441464D01*
X0078464Y0441306D01*
X0078241Y0441153D01*
X0078014Y0441005D01*
X0077783Y0440863D01*
X0077550Y0440727D01*
X0077313Y0440597D01*
X0077073Y0440472D01*
X0076829Y0440353D01*
X0076583Y0440241D01*
X0076335Y0440134D01*
X0076083Y0440034D01*
X0075830Y0439939D01*
X0075574Y0439851D01*
X0075316Y0439770D01*
X0075056Y0439694D01*
X0074795Y0439625D01*
X0074531Y0439563D01*
X0074267Y0439507D01*
X0074001Y0439457D01*
X0073734Y0439414D01*
X0073465Y0439378D01*
X0073197Y0439348D01*
X0072927Y0439325D01*
X0072657Y0439308D01*
X0072387Y0439298D01*
X0072116Y0439295D01*
X0071845Y0439298D01*
X0071575Y0439308D01*
X0071305Y0439325D01*
X0071035Y0439348D01*
X0070767Y0439378D01*
X0070498Y0439414D01*
X0070231Y0439457D01*
X0069965Y0439507D01*
X0069701Y0439563D01*
X0069437Y0439625D01*
X0069176Y0439694D01*
X0068916Y0439770D01*
X0068658Y0439851D01*
X0068402Y0439939D01*
X0068149Y0440034D01*
X0067897Y0440134D01*
X0067649Y0440241D01*
X0067403Y0440353D01*
X0067159Y0440472D01*
X0066919Y0440597D01*
X0066682Y0440727D01*
X0066449Y0440863D01*
X0066218Y0441005D01*
X0065991Y0441153D01*
X0065768Y0441306D01*
X0065549Y0441464D01*
X0065334Y0441628D01*
X0065122Y0441797D01*
X0064915Y0441972D01*
X0064713Y0442151D01*
X0064515Y0442335D01*
X0064321Y0442524D01*
X0064132Y0442718D01*
X0063948Y0442916D01*
X0063769Y0443118D01*
X0063594Y0443325D01*
X0063425Y0443537D01*
X0063261Y0443752D01*
X0063103Y0443971D01*
X0062950Y0444194D01*
X0062802Y0444421D01*
X0062660Y0444652D01*
X0062524Y0444885D01*
X0062394Y0445122D01*
X0062269Y0445362D01*
X0062150Y0445606D01*
X0062038Y0445852D01*
X0061931Y0446100D01*
X0061831Y0446352D01*
X0061736Y0446605D01*
X0061648Y0446861D01*
X0061567Y0447119D01*
X0061491Y0447379D01*
X0061422Y0447640D01*
X0061360Y0447904D01*
X0061304Y0448168D01*
X0061254Y0448434D01*
X0061211Y0448701D01*
X0061175Y0448970D01*
X0061145Y0449238D01*
X0061122Y0449508D01*
X0061105Y0449778D01*
X0061095Y0450048D01*
X0061092Y0450319D01*
D11*
X0216604Y0420055D03*
X0216604Y0401055D03*
D12*
X0087707Y0378469D03*
X0087707Y0368626D03*
X0087707Y0358783D03*
X0087707Y0348941D03*
X0087707Y0339098D03*
X0087707Y0329256D03*
X0087707Y0319413D03*
X0087707Y0309571D03*
X0087707Y0299728D03*
X0087707Y0289886D03*
X0087707Y0280043D03*
X0087707Y0270201D03*
X0087707Y0260358D03*
X0087707Y0250516D03*
X0087707Y0240673D03*
X0087707Y0230831D03*
X0087707Y0220988D03*
X0087707Y0211146D03*
X0087707Y0201303D03*
X0087707Y0191461D03*
X0087707Y0181618D03*
X0087707Y0171776D03*
X0087707Y0161933D03*
X0087707Y0152091D03*
X0087707Y0142248D03*
X0087707Y0132406D03*
X0087707Y0122563D03*
X0087707Y0112720D03*
X0087707Y0102878D03*
X0087707Y0093035D03*
X0068022Y0093035D03*
X0068022Y0102878D03*
X0068022Y0112720D03*
X0068022Y0122563D03*
X0068022Y0132406D03*
X0068022Y0142248D03*
X0068022Y0152091D03*
X0068022Y0161933D03*
X0068022Y0171776D03*
X0068022Y0181618D03*
X0068022Y0191461D03*
X0068022Y0201303D03*
X0068022Y0211146D03*
X0068022Y0220988D03*
X0068022Y0230831D03*
X0068022Y0240673D03*
X0068022Y0250516D03*
X0068022Y0260358D03*
X0068022Y0270201D03*
X0068022Y0280043D03*
X0068022Y0289886D03*
X0068022Y0299728D03*
X0068022Y0309571D03*
X0068022Y0319413D03*
X0068022Y0329256D03*
X0068022Y0339098D03*
X0068022Y0348941D03*
X0068022Y0358783D03*
X0068022Y0368626D03*
X0068022Y0378469D03*
D13*
X0092938Y0395949D02*
X0098538Y0395949D01*
X0098538Y0405949D02*
X0092938Y0405949D01*
X0092938Y0415949D02*
X0098538Y0415949D01*
X0098538Y0425949D02*
X0092938Y0425949D01*
X0225812Y0347209D02*
X0231412Y0347209D01*
X0231412Y0337209D02*
X0225812Y0337209D01*
X0225812Y0327209D02*
X0231412Y0327209D01*
X0231412Y0317209D02*
X0225812Y0317209D01*
X0222554Y0070555D02*
X0216954Y0070555D01*
X0210349Y0070555D02*
X0204749Y0070555D01*
X0198144Y0070555D02*
X0192544Y0070555D01*
X0185940Y0070555D02*
X0180340Y0070555D01*
X0180340Y0060555D02*
X0185940Y0060555D01*
X0192544Y0060555D02*
X0198144Y0060555D01*
X0204749Y0060555D02*
X0210349Y0060555D01*
X0216954Y0060555D02*
X0222554Y0060555D01*
X0222554Y0050555D02*
X0216954Y0050555D01*
X0210349Y0050555D02*
X0204749Y0050555D01*
X0198144Y0050555D02*
X0192544Y0050555D01*
X0185940Y0050555D02*
X0180340Y0050555D01*
X0197037Y0025954D02*
X0197037Y0020354D01*
X0207037Y0020354D02*
X0207037Y0025954D01*
D14*
X0218593Y0125043D03*
X0228593Y0125043D03*
X0228593Y0135043D03*
X0228593Y0145043D03*
X0228593Y0155043D03*
X0218593Y0155043D03*
X0218593Y0145043D03*
X0218593Y0135043D03*
X0195344Y0135043D03*
X0185344Y0135043D03*
X0185344Y0125043D03*
X0195344Y0125043D03*
X0195344Y0145043D03*
X0185344Y0145043D03*
X0185344Y0155043D03*
X0195344Y0155043D03*
X0195344Y0165043D03*
X0185344Y0165043D03*
X0185344Y0175043D03*
X0195344Y0175043D03*
X0195344Y0185043D03*
X0185344Y0185043D03*
X0185344Y0195043D03*
X0195344Y0195043D03*
X0195344Y0205043D03*
X0185344Y0205043D03*
X0185344Y0215043D03*
X0195344Y0215043D03*
X0195344Y0225043D03*
X0185344Y0225043D03*
X0185344Y0235043D03*
X0195344Y0235043D03*
X0195344Y0245043D03*
X0185344Y0245043D03*
X0185344Y0255043D03*
X0195344Y0255043D03*
X0195344Y0265043D03*
X0185344Y0265043D03*
X0185344Y0275043D03*
X0195344Y0275043D03*
X0195344Y0285043D03*
X0185344Y0285043D03*
X0218593Y0285043D03*
X0228593Y0285043D03*
X0228593Y0275043D03*
X0228593Y0265043D03*
X0228593Y0255043D03*
X0218593Y0255043D03*
X0218593Y0265043D03*
X0218593Y0275043D03*
X0218593Y0245043D03*
X0228593Y0245043D03*
X0228593Y0235043D03*
X0228593Y0225043D03*
X0228593Y0215043D03*
X0228593Y0205043D03*
X0228593Y0195043D03*
X0228593Y0185043D03*
X0228593Y0175043D03*
X0228593Y0165043D03*
X0218593Y0165043D03*
X0218593Y0175043D03*
X0218593Y0185043D03*
X0218593Y0195043D03*
X0218593Y0205043D03*
X0218593Y0215043D03*
X0218593Y0225043D03*
X0218593Y0235043D03*
D15*
X0191014Y0386736D03*
X0191014Y0391736D03*
X0191014Y0396736D03*
X0191014Y0401736D03*
X0191014Y0406736D03*
X0191014Y0411736D03*
X0191014Y0416736D03*
X0191014Y0421736D03*
X0191014Y0426736D03*
X0191014Y0431736D03*
X0191014Y0436736D03*
X0127234Y0436736D03*
X0127234Y0431736D03*
X0127234Y0426736D03*
X0127234Y0421736D03*
X0127234Y0416736D03*
X0127234Y0411736D03*
X0127234Y0406736D03*
X0127234Y0401736D03*
X0127234Y0396736D03*
X0127234Y0391736D03*
X0127234Y0386736D03*
X0105069Y0075161D03*
X0105069Y0070161D03*
X0105069Y0065161D03*
X0105069Y0060161D03*
X0105069Y0055161D03*
X0105069Y0050161D03*
X0105069Y0045161D03*
X0158848Y0045161D03*
X0158848Y0050161D03*
X0158848Y0055161D03*
X0158848Y0060161D03*
X0158848Y0065161D03*
X0158848Y0070161D03*
X0158848Y0075161D03*
D16*
X0151959Y0082051D03*
X0146959Y0082051D03*
X0141959Y0082051D03*
X0136959Y0082051D03*
X0131959Y0082051D03*
X0126959Y0082051D03*
X0121959Y0082051D03*
X0116959Y0082051D03*
X0111959Y0082051D03*
X0111959Y0038272D03*
X0116959Y0038272D03*
X0121959Y0038272D03*
X0126959Y0038272D03*
X0131959Y0038272D03*
X0136959Y0038272D03*
X0141959Y0038272D03*
X0146959Y0038272D03*
X0151959Y0038272D03*
X0154124Y0379846D03*
X0149124Y0379846D03*
X0144124Y0379846D03*
X0139124Y0379846D03*
X0134124Y0379846D03*
X0159124Y0379846D03*
X0164124Y0379846D03*
X0169124Y0379846D03*
X0174124Y0379846D03*
X0179124Y0379846D03*
X0184124Y0379846D03*
X0184124Y0443626D03*
X0179124Y0443626D03*
X0174124Y0443626D03*
X0169124Y0443626D03*
X0164124Y0443626D03*
X0159124Y0443626D03*
X0154124Y0443626D03*
X0149124Y0443626D03*
X0144124Y0443626D03*
X0139124Y0443626D03*
X0134124Y0443626D03*
D17*
X0152628Y0255043D03*
X0160108Y0255043D03*
X0160108Y0165280D03*
X0152628Y0165280D03*
X0152628Y0155043D03*
X0160108Y0155043D03*
X0160108Y0144807D03*
X0152628Y0144807D03*
X0152628Y0125122D03*
X0160108Y0125122D03*
X0134911Y0021185D03*
X0127431Y0021185D03*
D18*
X0217785Y0440673D03*
X0217785Y0448154D03*
D19*
X0074085Y0072957D03*
X0074085Y0048154D03*
D20*
X0074085Y0055161D01*
X0056880Y0055161D01*
X0071526Y0072957D02*
X0074085Y0072957D01*
X0071526Y0072957D02*
X0062274Y0082209D01*
X0185502Y0121972D02*
X0192589Y0114886D01*
X0228415Y0114886D01*
X0231565Y0114886D01*
X0231565Y0005437D01*
X0280266Y0005949D02*
X0294545Y0005840D01*
X0292589Y0005852D01*
X0294545Y0005840D02*
X0320119Y0005646D01*
X0320148Y0005675D01*
X0320119Y0005646D02*
X0343770Y0005437D01*
X0344518Y0006185D01*
X0228415Y0114886D02*
X0228415Y0125122D01*
X0228809Y0125122D01*
X0228593Y0125043D02*
X0228593Y0135043D01*
X0228593Y0145043D01*
X0228593Y0155043D01*
X0228593Y0165043D01*
X0228593Y0175043D01*
X0228593Y0185043D01*
X0228593Y0195043D01*
X0228593Y0205043D01*
X0228593Y0215043D01*
X0228593Y0225043D01*
X0228593Y0235043D01*
X0228593Y0245043D01*
X0228593Y0255043D01*
X0228593Y0265043D01*
X0228593Y0275043D01*
X0228593Y0285043D01*
X0217785Y0295850D01*
X0217785Y0320398D01*
X0224596Y0327209D01*
X0228612Y0327209D01*
X0228612Y0337209D01*
X0224596Y0337209D01*
X0217785Y0344020D01*
X0217785Y0353862D01*
X0235502Y0367642D01*
X0235502Y0379213D01*
X0235502Y0466067D01*
X0160699Y0466067D02*
X0134518Y0465476D01*
X0095738Y0415949D02*
X0095738Y0405949D01*
X0057274Y0405949D01*
X0056368Y0405043D01*
X0056368Y0408980D02*
X0057274Y0409886D01*
X0056368Y0409886D02*
X0056368Y0410949D01*
X0056368Y0422760D02*
X0057431Y0423823D01*
X0095344Y0395949D02*
X0068022Y0368626D01*
X0068022Y0358783D01*
X0068022Y0348941D02*
X0057352Y0348941D01*
X0056368Y0349925D01*
X0068022Y0348941D02*
X0068022Y0339098D01*
X0068022Y0368626D02*
X0069163Y0368626D01*
X0095344Y0395949D02*
X0095738Y0395949D01*
X0096486Y0395201D02*
X0099675Y0395201D01*
X0185344Y0285043D02*
X0185344Y0275043D01*
X0185344Y0265043D01*
X0185344Y0255043D01*
X0185344Y0245043D01*
X0185344Y0235043D01*
X0185344Y0225043D01*
X0185344Y0215043D01*
X0185344Y0205043D01*
X0185344Y0195043D01*
X0185344Y0185043D01*
X0185344Y0175043D01*
X0185344Y0165043D01*
X0185344Y0155043D01*
X0185344Y0145043D01*
X0185344Y0135043D01*
X0185344Y0125043D01*
X0185502Y0124728D02*
X0185502Y0121972D01*
D21*
X0056368Y0068429D03*
X0131171Y0005437D03*
X0343770Y0005437D03*
X0495344Y0005437D03*
X0056368Y0349925D03*
X0056368Y0466067D03*
X0160699Y0466067D03*
X0294557Y0466067D03*
X0495344Y0466067D03*
D22*
X0212274Y0466067D02*
X0211880Y0465673D01*
X0167785Y0466067D02*
X0159124Y0466854D01*
X0096526Y0396736D02*
X0095738Y0395949D01*
X0096486Y0395201D01*
X0058100Y0070161D02*
X0056368Y0068429D01*
X0056880Y0055161D02*
X0056368Y0054650D01*
D23*
X0074085Y0072957D02*
X0081880Y0065161D01*
X0085896Y0065161D01*
X0105069Y0065161D01*
X0113183Y0065161D01*
X0115331Y0063013D01*
X0145931Y0055363D02*
X0158681Y0055363D01*
X0212274Y0353862D02*
X0217785Y0353862D01*
X0148888Y0412917D02*
X0145069Y0416736D01*
X0127234Y0416736D01*
X0121211Y0416736D01*
X0099675Y0395201D01*
X0158730Y0426697D02*
X0159124Y0427091D01*
X0159124Y0443626D01*
X0159124Y0466854D01*
D24*
X0146919Y0432602D03*
X0139045Y0424728D03*
X0152825Y0420791D03*
X0158730Y0426697D03*
X0148888Y0412917D03*
X0142982Y0410949D03*
X0172510Y0405043D03*
X0212274Y0353862D03*
X0105581Y0410949D03*
X0062274Y0082209D03*
X0113631Y0069813D03*
D25*
X0105131Y0069813D01*
X0105069Y0070161D01*
X0105069Y0075161D02*
X0105131Y0075763D01*
X0105131Y0103813D01*
X0113631Y0112313D01*
X0118731Y0112313D01*
X0122131Y0117413D02*
X0122131Y0147163D01*
X0132331Y0157363D01*
X0132331Y0216013D01*
X0134031Y0217713D01*
X0134031Y0233013D01*
X0100031Y0267013D01*
X0099181Y0267013D01*
X0099181Y0272113D02*
X0088131Y0261063D01*
X0087707Y0260358D01*
X0085581Y0255963D02*
X0083031Y0258513D01*
X0083031Y0284013D01*
X0088131Y0289113D01*
X0087707Y0289886D01*
X0092381Y0289963D02*
X0092381Y0291663D01*
X0089831Y0294213D01*
X0083031Y0294213D01*
X0073681Y0284863D01*
X0073681Y0284013D01*
X0069431Y0284863D02*
X0066031Y0284863D01*
X0063481Y0282313D01*
X0063481Y0248313D01*
X0066031Y0245763D01*
X0069431Y0245763D01*
X0072831Y0242363D01*
X0072831Y0205813D01*
X0068581Y0201563D01*
X0068022Y0201303D01*
X0069431Y0196463D02*
X0066031Y0196463D01*
X0063481Y0199013D01*
X0063481Y0236413D01*
X0067731Y0240663D01*
X0068022Y0240673D01*
X0072831Y0244913D02*
X0072831Y0275513D01*
X0068581Y0279763D01*
X0068022Y0280043D01*
X0069431Y0284863D02*
X0076231Y0291663D01*
X0076231Y0323963D01*
X0086431Y0334163D01*
X0088981Y0334163D01*
X0094081Y0339263D01*
X0094081Y0378363D01*
X0101731Y0386013D01*
X0101731Y0391113D01*
X0117031Y0406413D01*
X0127231Y0406413D01*
X0127234Y0406736D01*
X0128081Y0411513D02*
X0127234Y0411736D01*
X0128081Y0411513D02*
X0133181Y0411513D01*
X0134881Y0409813D01*
X0142982Y0410949D02*
X0149331Y0404600D01*
X0149331Y0380063D01*
X0149124Y0379846D01*
X0149331Y0379213D01*
X0149331Y0369013D01*
X0150181Y0368163D01*
X0150181Y0324813D01*
X0160381Y0314613D01*
X0160381Y0285713D01*
X0166331Y0279763D01*
X0166331Y0253413D01*
X0154431Y0241513D01*
X0154431Y0221963D01*
X0151881Y0224513D02*
X0147631Y0220263D01*
X0147631Y0170113D01*
X0151881Y0165863D01*
X0152628Y0165280D01*
X0152731Y0165013D01*
X0152731Y0155663D01*
X0152628Y0155043D01*
X0152731Y0154813D01*
X0152731Y0145463D01*
X0152628Y0144807D01*
X0152731Y0144613D01*
X0152731Y0125913D01*
X0152628Y0125122D01*
X0160108Y0125122D02*
X0160381Y0125913D01*
X0164631Y0125913D01*
X0168881Y0130163D01*
X0173131Y0129313D02*
X0173131Y0200713D01*
X0164631Y0209213D01*
X0164631Y0218563D01*
X0169731Y0223663D01*
X0162931Y0221963D02*
X0162931Y0201563D01*
X0168031Y0210913D02*
X0174831Y0204113D01*
X0174831Y0128463D01*
X0159531Y0113163D01*
X0159531Y0075763D01*
X0158848Y0075161D01*
X0159531Y0070663D02*
X0158848Y0070161D01*
X0159531Y0070663D02*
X0162081Y0070663D01*
X0164631Y0073213D01*
X0164631Y0113163D01*
X0168031Y0109763D02*
X0166331Y0108063D01*
X0166331Y0069813D01*
X0162081Y0065563D01*
X0159531Y0065563D01*
X0158848Y0065161D01*
X0168031Y0066413D02*
X0173981Y0060463D01*
X0173981Y0046013D01*
X0179081Y0040913D01*
X0185881Y0040913D01*
X0195231Y0050263D01*
X0195344Y0050555D01*
X0190981Y0056213D02*
X0195231Y0060463D01*
X0195344Y0060555D01*
X0190981Y0056213D02*
X0179931Y0056213D01*
X0175681Y0051963D01*
X0175681Y0049413D01*
X0180781Y0044313D01*
X0195909Y0036933D02*
X0186289Y0027313D01*
X0145081Y0027313D01*
X0137431Y0034963D01*
X0137431Y0037513D01*
X0136959Y0038272D01*
X0141681Y0038363D02*
X0141959Y0038272D01*
X0141681Y0038363D02*
X0141681Y0074913D01*
X0141959Y0082051D02*
X0142531Y0082563D01*
X0142531Y0136963D01*
X0130631Y0130163D02*
X0130631Y0108913D01*
X0136581Y0102963D01*
X0136581Y0082563D01*
X0136959Y0082051D01*
X0131959Y0082051D02*
X0131481Y0082563D01*
X0131481Y0104663D01*
X0106831Y0129313D01*
X0103431Y0133563D02*
X0113631Y0143763D01*
X0113631Y0151413D01*
X0114481Y0152263D01*
X0114481Y0212613D01*
X0102581Y0224513D01*
X0101731Y0230463D02*
X0088131Y0230463D01*
X0087707Y0230831D01*
X0085581Y0235563D02*
X0074531Y0224513D01*
X0074531Y0199863D01*
X0073681Y0199013D01*
X0069431Y0196463D02*
X0073681Y0192213D01*
X0073681Y0188813D01*
X0076231Y0186263D02*
X0082181Y0192213D01*
X0082181Y0227063D01*
X0085581Y0235563D02*
X0099181Y0235563D01*
X0115331Y0219413D01*
X0130631Y0219413D01*
X0134031Y0215163D02*
X0135731Y0216863D01*
X0135731Y0240663D01*
X0104281Y0272113D01*
X0099181Y0272113D01*
X0093231Y0275513D02*
X0088131Y0270413D01*
X0087707Y0270201D01*
X0093231Y0275513D02*
X0105981Y0275513D01*
X0113631Y0267863D01*
X0114481Y0268713D01*
X0113631Y0267863D02*
X0137431Y0244063D01*
X0137431Y0159063D01*
X0140831Y0157363D02*
X0135731Y0152263D01*
X0135731Y0108913D01*
X0139131Y0105513D02*
X0139131Y0150563D01*
X0142531Y0153963D01*
X0140831Y0157363D02*
X0140831Y0243213D01*
X0117881Y0266163D01*
X0117881Y0277213D01*
X0096631Y0298463D01*
X0088131Y0299313D02*
X0087707Y0299728D01*
X0088131Y0299313D02*
X0098331Y0289113D01*
X0098331Y0285713D02*
X0096631Y0285713D01*
X0092381Y0289963D01*
X0098331Y0285713D02*
X0108531Y0275513D01*
X0114481Y0275513D01*
X0126381Y0265313D02*
X0126381Y0293363D01*
X0121281Y0298463D01*
X0121281Y0301013D01*
X0122981Y0294213D02*
X0122981Y0263613D01*
X0144231Y0242363D01*
X0144231Y0193063D01*
X0151031Y0186263D02*
X0164631Y0172663D01*
X0164631Y0154813D01*
X0160381Y0154813D01*
X0160108Y0155043D01*
X0164631Y0154813D02*
X0169731Y0154813D01*
X0169731Y0144613D02*
X0160381Y0144613D01*
X0160108Y0144807D01*
X0173131Y0129313D02*
X0147631Y0103813D01*
X0147631Y0082563D01*
X0146959Y0082051D01*
X0151881Y0082563D02*
X0151959Y0082051D01*
X0151881Y0082563D02*
X0151881Y0102963D01*
X0168031Y0103813D02*
X0168031Y0066413D01*
X0169731Y0072363D02*
X0180781Y0061313D01*
X0182481Y0061313D01*
X0183140Y0060555D01*
X0179931Y0064713D02*
X0203731Y0064713D01*
X0207131Y0061313D01*
X0207549Y0060555D01*
X0211381Y0066413D02*
X0207981Y0069813D01*
X0207549Y0070555D01*
X0211381Y0066413D02*
X0223281Y0066413D01*
X0226681Y0063013D01*
X0226681Y0057913D01*
X0219881Y0051113D01*
X0219754Y0050555D01*
X0228381Y0047529D02*
X0217785Y0036933D01*
X0195909Y0036933D01*
X0197037Y0023154D02*
X0136880Y0023154D01*
X0134911Y0021185D01*
X0134911Y0027287D01*
X0133140Y0029059D01*
X0099478Y0029059D01*
X0089833Y0038705D01*
X0089833Y0052681D01*
X0092313Y0055161D01*
X0105069Y0055161D01*
X0104281Y0050263D02*
X0105069Y0050161D01*
X0104281Y0050263D02*
X0094081Y0050263D01*
X0097481Y0046863D02*
X0099181Y0045163D01*
X0104281Y0045163D01*
X0105069Y0045161D01*
X0111959Y0038272D02*
X0112781Y0038363D01*
X0112781Y0052813D01*
X0120431Y0060463D01*
X0120431Y0071513D01*
X0117031Y0074913D01*
X0122131Y0073213D02*
X0123831Y0074913D01*
X0122131Y0073213D02*
X0122131Y0038363D01*
X0121959Y0038272D01*
X0126381Y0038363D02*
X0126959Y0038272D01*
X0126381Y0038363D02*
X0126381Y0068381D01*
X0125531Y0069625D01*
X0131481Y0074913D02*
X0131481Y0038363D01*
X0131959Y0038272D01*
X0116959Y0038272D02*
X0116181Y0038363D01*
X0116181Y0051113D01*
X0097481Y0071513D02*
X0097481Y0093613D01*
X0103431Y0099563D01*
X0103431Y0133563D01*
X0100031Y0135263D02*
X0103431Y0138663D01*
X0100031Y0135263D02*
X0100031Y0110613D01*
X0111931Y0104663D02*
X0121281Y0095313D01*
X0121281Y0082563D01*
X0121959Y0082051D01*
X0116959Y0082051D02*
X0116181Y0082563D01*
X0116181Y0094463D01*
X0111931Y0098713D02*
X0111931Y0082563D01*
X0111959Y0082051D01*
X0096631Y0095313D02*
X0096631Y0136963D01*
X0111081Y0151413D01*
X0111081Y0207513D01*
X0109381Y0209213D01*
X0101731Y0209213D01*
X0094081Y0201563D01*
X0080481Y0185413D02*
X0079631Y0184563D01*
X0079631Y0176063D01*
X0077081Y0173513D02*
X0076231Y0174363D01*
X0076231Y0186263D01*
X0077081Y0173513D02*
X0077081Y0171813D01*
X0087707Y0152091D02*
X0088131Y0152263D01*
X0107681Y0171813D01*
X0095781Y0154813D02*
X0097481Y0153113D01*
X0097481Y0140363D01*
X0093231Y0136113D01*
X0093231Y0098713D01*
X0096631Y0095313D02*
X0083881Y0082563D01*
X0083881Y0070663D01*
X0085896Y0065161D02*
X0085896Y0035161D01*
X0099872Y0021185D01*
X0127431Y0021185D01*
X0146781Y0030713D02*
X0151881Y0035813D01*
X0151881Y0037513D01*
X0151959Y0038272D01*
X0156131Y0045163D02*
X0151300Y0048026D01*
X0156131Y0045163D02*
X0158681Y0045163D01*
X0158848Y0045161D01*
X0158848Y0050161D02*
X0159531Y0050263D01*
X0162081Y0050263D01*
X0170581Y0058763D01*
X0179931Y0064713D02*
X0173131Y0071513D01*
X0173131Y0080013D01*
X0169731Y0072363D02*
X0169731Y0102963D01*
X0179081Y0112313D01*
X0179081Y0244063D01*
X0173981Y0236413D02*
X0156131Y0218563D01*
X0151031Y0218563D01*
X0151881Y0224513D02*
X0151881Y0254263D01*
X0152628Y0255043D01*
X0151881Y0255113D01*
X0151881Y0272113D01*
X0149331Y0274663D01*
X0149331Y0294213D01*
X0156981Y0300163D02*
X0156981Y0267013D01*
X0162931Y0261063D01*
X0160381Y0258513D01*
X0160381Y0255113D01*
X0160108Y0255043D01*
X0169731Y0248313D02*
X0169731Y0278913D01*
X0162081Y0286563D01*
X0162081Y0315463D01*
X0154431Y0323113D01*
X0154431Y0364763D01*
X0163781Y0374113D01*
X0166331Y0374113D01*
X0168881Y0376663D01*
X0168881Y0379213D01*
X0169124Y0379846D01*
X0168881Y0380063D01*
X0168881Y0383698D01*
X0172510Y0387327D01*
X0172510Y0399138D01*
X0152825Y0418823D01*
X0152825Y0420791D01*
X0146919Y0420791D02*
X0166604Y0401106D01*
X0166604Y0388021D01*
X0166913Y0387713D01*
X0163781Y0382613D02*
X0158681Y0387713D01*
X0153581Y0387713D02*
X0153581Y0380063D01*
X0154124Y0379846D01*
X0158681Y0379213D02*
X0158681Y0376663D01*
X0152731Y0370713D01*
X0148481Y0365613D02*
X0141681Y0372413D01*
X0143381Y0374113D01*
X0143381Y0379213D01*
X0144124Y0379846D01*
X0139124Y0379846D02*
X0138281Y0379213D01*
X0138281Y0366463D01*
X0134881Y0363063D02*
X0120431Y0377513D01*
X0117031Y0375813D02*
X0136581Y0356263D01*
X0136581Y0321413D01*
X0133181Y0314613D02*
X0105131Y0342663D01*
X0105131Y0345213D01*
X0101731Y0346913D02*
X0101731Y0338413D01*
X0110231Y0329913D01*
X0110231Y0322263D01*
X0106831Y0330763D02*
X0106831Y0310363D01*
X0122981Y0294213D01*
X0116181Y0290813D02*
X0100031Y0306963D01*
X0100031Y0332463D01*
X0096631Y0335863D01*
X0096631Y0378363D01*
X0103431Y0385163D01*
X0103431Y0387713D01*
X0117031Y0401313D01*
X0122864Y0396736D02*
X0121329Y0395201D01*
X0121329Y0388611D01*
X0120687Y0387969D01*
X0117031Y0384313D01*
X0117031Y0375813D01*
X0119581Y0368163D02*
X0119581Y0333313D01*
X0145931Y0306963D01*
X0145931Y0255113D01*
X0148481Y0252563D01*
X0148481Y0240663D01*
X0145081Y0250863D02*
X0144231Y0251713D01*
X0144231Y0306113D01*
X0113631Y0336713D01*
X0113631Y0388563D01*
X0110231Y0391963D02*
X0105131Y0386863D01*
X0105131Y0384313D01*
X0098331Y0377513D01*
X0098331Y0336713D01*
X0103431Y0331613D01*
X0103431Y0308663D01*
X0106831Y0305263D02*
X0115331Y0296763D01*
X0136581Y0307813D02*
X0136581Y0270413D01*
X0134881Y0268713D01*
X0129781Y0268713D01*
X0133181Y0272113D02*
X0133181Y0314613D01*
X0148481Y0323963D02*
X0148481Y0365613D01*
X0145081Y0363063D02*
X0134881Y0363063D01*
X0128931Y0374113D02*
X0134031Y0379213D01*
X0134124Y0379846D01*
X0138281Y0386863D02*
X0128081Y0386863D01*
X0127234Y0386736D01*
X0127234Y0391113D02*
X0127234Y0391736D01*
X0127234Y0391113D02*
X0135731Y0391113D01*
X0138281Y0386863D02*
X0140831Y0389413D01*
X0145931Y0389413D02*
X0134031Y0401313D01*
X0128081Y0401313D01*
X0127234Y0401736D01*
X0127234Y0396736D02*
X0122864Y0396736D01*
X0117031Y0391963D02*
X0110231Y0391963D01*
X0109381Y0386013D02*
X0100031Y0376663D01*
X0100031Y0337563D01*
X0106831Y0330763D01*
X0094081Y0333313D02*
X0094081Y0325663D01*
X0088131Y0319713D01*
X0087707Y0319413D01*
X0079631Y0321413D02*
X0087281Y0329063D01*
X0087707Y0329256D01*
X0079631Y0321413D02*
X0079631Y0295913D01*
X0072831Y0295913D02*
X0072831Y0314613D01*
X0068581Y0318863D01*
X0068022Y0319413D01*
X0068581Y0319713D01*
X0072831Y0323963D01*
X0072831Y0330763D01*
X0085581Y0343513D01*
X0088981Y0343513D01*
X0092381Y0346913D01*
X0092381Y0379213D01*
X0098331Y0385163D01*
X0098331Y0388563D01*
X0110231Y0380913D02*
X0110231Y0355413D01*
X0101731Y0346913D01*
X0088131Y0349463D02*
X0088131Y0357963D01*
X0087707Y0358783D01*
X0088131Y0349463D02*
X0087707Y0348941D01*
X0148481Y0323963D02*
X0152731Y0319713D01*
X0152731Y0276363D01*
X0139981Y0268713D02*
X0131481Y0260213D01*
X0112781Y0242363D02*
X0105131Y0242363D01*
X0091531Y0255963D01*
X0085581Y0255963D01*
X0080481Y0248313D02*
X0077931Y0245763D01*
X0080481Y0248313D02*
X0080481Y0286563D01*
X0068022Y0289886D02*
X0067731Y0289113D01*
X0061781Y0283163D01*
X0061781Y0142063D01*
X0066031Y0137813D01*
X0069431Y0137813D01*
X0077081Y0130163D01*
X0077081Y0097013D01*
X0115331Y0129313D02*
X0115331Y0136963D01*
X0120431Y0142063D01*
X0120431Y0150563D01*
X0125531Y0148013D02*
X0134031Y0156513D01*
X0134031Y0215163D01*
X0121281Y0222813D02*
X0117031Y0222813D01*
X0097481Y0242363D01*
X0099181Y0245763D02*
X0083031Y0245763D01*
X0081331Y0236413D02*
X0072831Y0244913D01*
X0094081Y0261063D02*
X0109381Y0245763D01*
X0105981Y0238963D02*
X0099181Y0245763D01*
X0105981Y0238963D02*
X0122981Y0238963D01*
X0101731Y0230463D02*
X0117031Y0215163D01*
X0117031Y0143763D01*
X0125531Y0148013D02*
X0125531Y0119113D01*
X0122131Y0117413D02*
X0125531Y0114013D01*
X0127231Y0114013D01*
X0094081Y0142063D02*
X0089831Y0137813D01*
X0072831Y0137813D01*
X0068581Y0142063D01*
X0068022Y0142248D01*
X0160108Y0165280D02*
X0160381Y0165863D01*
X0160381Y0171813D01*
X0195344Y0195043D02*
X0196081Y0195613D01*
X0199481Y0199013D01*
X0199481Y0259363D01*
X0202881Y0261063D02*
X0200331Y0263613D01*
X0200331Y0296763D01*
X0204581Y0297613D02*
X0204581Y0133563D01*
X0196081Y0125063D01*
X0195344Y0125043D01*
X0185881Y0125063D02*
X0185502Y0124728D01*
X0185344Y0125043D02*
X0185881Y0125063D01*
X0195344Y0135043D02*
X0195231Y0135263D01*
X0190131Y0140363D01*
X0190131Y0362213D01*
X0208831Y0380913D01*
X0208831Y0385163D01*
X0212231Y0386863D02*
X0212231Y0370713D01*
X0202031Y0360513D01*
X0202031Y0305263D01*
X0205431Y0299313D02*
X0207981Y0296763D01*
X0207981Y0294213D01*
X0211381Y0295913D02*
X0211381Y0119963D01*
X0207981Y0121663D02*
X0206281Y0119963D01*
X0207981Y0121663D02*
X0207981Y0289113D01*
X0211381Y0295913D02*
X0208831Y0298463D01*
X0208831Y0356263D01*
X0222431Y0369863D01*
X0222431Y0451463D01*
X0221581Y0452313D01*
X0169731Y0452313D01*
X0164631Y0447213D01*
X0164631Y0443813D01*
X0164124Y0443626D01*
X0169124Y0443626D02*
X0169731Y0442963D01*
X0169731Y0434463D01*
X0173981Y0442963D02*
X0173981Y0406515D01*
X0172510Y0405043D01*
X0178231Y0412363D02*
X0183331Y0417463D01*
X0183331Y0422563D01*
X0178231Y0422563D02*
X0178231Y0417463D01*
X0178231Y0422563D02*
X0183331Y0427663D01*
X0183331Y0442963D01*
X0184124Y0443626D01*
X0179931Y0442963D02*
X0179124Y0443626D01*
X0179931Y0442963D02*
X0179931Y0429363D01*
X0191014Y0431736D02*
X0191831Y0431913D01*
X0198631Y0431913D01*
X0214781Y0448063D01*
X0217331Y0448063D01*
X0217785Y0448154D01*
X0217785Y0440673D02*
X0218181Y0440413D01*
X0218181Y0435313D01*
X0218181Y0424263D01*
X0220731Y0421713D01*
X0220731Y0399613D01*
X0218181Y0397063D01*
X0213081Y0397063D01*
X0193531Y0416613D01*
X0191831Y0416613D01*
X0191014Y0416736D01*
X0191014Y0421736D02*
X0191831Y0421713D01*
X0196081Y0421713D01*
X0216481Y0401313D01*
X0216604Y0401055D01*
X0212231Y0386863D02*
X0197781Y0401313D01*
X0191831Y0401313D01*
X0191014Y0401736D01*
X0191014Y0396736D02*
X0190981Y0396213D01*
X0187581Y0396213D01*
X0181631Y0390263D01*
X0181631Y0374963D01*
X0165481Y0358813D01*
X0165481Y0349463D01*
X0162081Y0346063D02*
X0162081Y0364763D01*
X0157831Y0365613D02*
X0164631Y0372413D01*
X0172281Y0372413D01*
X0179931Y0369863D02*
X0174831Y0364763D01*
X0174831Y0353713D01*
X0161231Y0340113D01*
X0161231Y0333313D01*
X0157831Y0324813D02*
X0157831Y0365613D01*
X0158681Y0379213D02*
X0159124Y0379846D01*
X0163781Y0380063D02*
X0163781Y0382613D01*
X0163781Y0380063D02*
X0164124Y0379846D01*
X0178231Y0387713D02*
X0178231Y0412363D01*
X0191831Y0425963D02*
X0191014Y0426736D01*
X0191831Y0425963D02*
X0211381Y0425963D01*
X0216481Y0420863D01*
X0216604Y0420055D01*
X0198631Y0437013D02*
X0191831Y0437013D01*
X0191014Y0436736D01*
X0173981Y0442963D02*
X0174124Y0443626D01*
X0154124Y0443626D02*
X0153581Y0442963D01*
X0153581Y0447594D01*
X0148888Y0452287D01*
X0131171Y0452287D01*
X0105581Y0426697D01*
X0105581Y0410949D01*
X0113631Y0416613D02*
X0113631Y0431063D01*
X0132331Y0449763D01*
X0140831Y0449763D01*
X0143381Y0447213D01*
X0143381Y0443813D01*
X0144124Y0443626D01*
X0148888Y0443390D02*
X0149124Y0443626D01*
X0149331Y0442963D01*
X0149331Y0436096D01*
X0152825Y0432602D01*
X0152825Y0430634D01*
X0146919Y0424728D01*
X0139045Y0424728D01*
X0136155Y0421713D02*
X0137077Y0420791D01*
X0146919Y0420791D01*
X0142982Y0428665D02*
X0146919Y0432602D01*
X0142982Y0428665D02*
X0137077Y0428665D01*
X0135224Y0426813D01*
X0128081Y0426813D01*
X0127234Y0426736D01*
X0127231Y0431063D02*
X0122981Y0431063D01*
X0117031Y0425113D01*
X0127234Y0421736D02*
X0128081Y0421713D01*
X0136155Y0421713D01*
X0127231Y0431063D02*
X0127234Y0431736D01*
X0128081Y0436163D02*
X0127234Y0436736D01*
X0128081Y0436163D02*
X0136089Y0436163D01*
X0191014Y0391736D02*
X0191831Y0391113D01*
X0202881Y0391113D01*
X0205431Y0388563D01*
X0202031Y0384313D02*
X0200331Y0386013D01*
X0191831Y0386013D01*
X0191014Y0386736D01*
X0198631Y0382613D02*
X0189281Y0373263D01*
X0188431Y0373263D01*
X0190981Y0369863D02*
X0179931Y0369863D01*
X0181631Y0366463D02*
X0181631Y0289963D01*
X0175681Y0284013D01*
X0175681Y0234713D01*
X0162931Y0221963D01*
X0175681Y0217713D02*
X0175681Y0205813D01*
X0176531Y0204963D01*
X0176531Y0112313D01*
X0168031Y0103813D01*
X0197781Y0106363D02*
X0228381Y0075763D01*
X0228381Y0047529D01*
X0222431Y0076613D02*
X0201181Y0097863D01*
X0158681Y0055363D02*
X0158848Y0055161D01*
X0207037Y0023154D02*
X0207943Y0020280D01*
X0207943Y0005437D01*
X0195344Y0145043D02*
X0196081Y0145463D01*
X0202881Y0152263D01*
X0202881Y0261063D01*
X0179931Y0257663D02*
X0179931Y0285713D01*
X0186731Y0292513D01*
X0186731Y0360513D01*
X0193531Y0360513D02*
X0193531Y0308663D01*
X0204581Y0297613D01*
X0205431Y0299313D02*
X0205431Y0325663D01*
X0212231Y0339263D02*
X0212231Y0297613D01*
X0213931Y0295913D01*
X0213931Y0189663D01*
X0218181Y0185413D01*
X0218593Y0185043D01*
X0223281Y0170113D02*
X0219031Y0165863D01*
X0218593Y0165043D01*
X0223281Y0170113D02*
X0223281Y0241513D01*
X0173981Y0236413D02*
X0173981Y0300163D01*
X0170581Y0301863D02*
X0170581Y0283163D01*
X0170581Y0301863D02*
X0178231Y0309513D01*
X0178231Y0358813D01*
X0190981Y0369863D02*
X0202031Y0380913D01*
X0202031Y0384313D01*
X0188431Y0380063D02*
X0184181Y0380063D01*
X0184124Y0379846D01*
X0202031Y0365613D02*
X0202031Y0363063D01*
X0198631Y0359663D01*
X0198631Y0349463D01*
X0205431Y0340113D02*
X0205431Y0358813D01*
X0230081Y0379213D02*
X0235502Y0379213D01*
D26*
X0230081Y0379213D03*
X0208831Y0385163D03*
X0205431Y0388563D03*
X0198631Y0382613D03*
X0188431Y0380063D03*
X0188431Y0373263D03*
X0181631Y0366463D03*
X0186731Y0360513D03*
X0193531Y0360513D03*
X0202031Y0365613D03*
X0205431Y0358813D03*
X0198631Y0349463D03*
X0205431Y0340113D03*
X0212231Y0339263D03*
X0205431Y0325663D03*
X0202031Y0305263D03*
X0200331Y0296763D03*
X0207981Y0294213D03*
X0207981Y0289113D03*
X0199481Y0259363D03*
X0179931Y0257663D03*
X0169731Y0248313D03*
X0179081Y0244063D03*
X0169731Y0223663D03*
X0175681Y0217713D03*
X0168031Y0210913D03*
X0162931Y0201563D03*
X0151031Y0186263D03*
X0144231Y0193063D03*
X0160381Y0171813D03*
X0169731Y0154813D03*
X0169731Y0144613D03*
X0168881Y0130163D03*
X0164631Y0113163D03*
X0168031Y0109763D03*
X0151881Y0102963D03*
X0139131Y0105513D03*
X0135731Y0108913D03*
X0127231Y0114013D03*
X0125531Y0119113D03*
X0118731Y0112313D03*
X0111931Y0104663D03*
X0111931Y0098713D03*
X0116181Y0094463D03*
X0100031Y0110613D03*
X0093231Y0098713D03*
X0077081Y0097013D03*
X0097481Y0071513D03*
X0083881Y0070663D03*
X0094081Y0050263D03*
X0097481Y0046863D03*
X0116181Y0051113D03*
X0115331Y0063013D03*
X0117031Y0074913D03*
X0123831Y0074913D03*
X0125531Y0069625D03*
X0131481Y0074913D03*
X0141681Y0074913D03*
X0145931Y0055363D03*
X0151300Y0048026D03*
X0170581Y0058763D03*
X0180781Y0044313D03*
X0146781Y0030713D03*
X0173131Y0080013D03*
X0201181Y0097863D03*
X0197781Y0106363D03*
X0206281Y0119963D03*
X0211381Y0119963D03*
X0222431Y0076613D03*
X0142531Y0136963D03*
X0130631Y0130163D03*
X0115331Y0129313D03*
X0106831Y0129313D03*
X0103431Y0138663D03*
X0094081Y0142063D03*
X0095781Y0154813D03*
X0107681Y0171813D03*
X0120431Y0150563D03*
X0117031Y0143763D03*
X0137431Y0159063D03*
X0142531Y0153963D03*
X0094081Y0201563D03*
X0109381Y0209213D03*
X0102581Y0224513D03*
X0121281Y0222813D03*
X0130631Y0219413D03*
X0151031Y0218563D03*
X0154431Y0221963D03*
X0148481Y0240663D03*
X0145081Y0250863D03*
X0131481Y0260213D03*
X0126381Y0265313D03*
X0129781Y0268713D03*
X0133181Y0272113D03*
X0139981Y0268713D03*
X0152731Y0276363D03*
X0162931Y0261063D03*
X0170581Y0283163D03*
X0173981Y0300163D03*
X0156981Y0300163D03*
X0149331Y0294213D03*
X0136581Y0307813D03*
X0136581Y0321413D03*
X0157831Y0324813D03*
X0161231Y0333313D03*
X0162081Y0346063D03*
X0165481Y0349463D03*
X0178231Y0358813D03*
X0172281Y0372413D03*
X0162081Y0364763D03*
X0152731Y0370713D03*
X0145081Y0363063D03*
X0141681Y0372413D03*
X0138281Y0366463D03*
X0128931Y0374113D03*
X0120431Y0377513D03*
X0110231Y0380913D03*
X0109381Y0386013D03*
X0113631Y0388563D03*
X0117031Y0391963D03*
X0117031Y0401313D03*
X0113631Y0416613D03*
X0117031Y0425113D03*
X0136089Y0436163D03*
X0134881Y0409813D03*
X0135731Y0391113D03*
X0140831Y0389413D03*
X0145931Y0389413D03*
X0153581Y0387713D03*
X0158681Y0387713D03*
X0166913Y0387713D03*
X0178231Y0387713D03*
X0178231Y0417463D03*
X0183331Y0422563D03*
X0179931Y0429363D03*
X0169731Y0434463D03*
X0198631Y0437013D03*
X0218181Y0435313D03*
X0119581Y0368163D03*
X0098331Y0388563D03*
X0105131Y0345213D03*
X0094081Y0333313D03*
X0110231Y0322263D03*
X0103431Y0308663D03*
X0106831Y0305263D03*
X0115331Y0296763D03*
X0116181Y0290813D03*
X0121281Y0301013D03*
X0098331Y0289113D03*
X0096631Y0298463D03*
X0079631Y0295913D03*
X0072831Y0295913D03*
X0073681Y0284013D03*
X0080481Y0286563D03*
X0099181Y0267013D03*
X0104281Y0272113D03*
X0114481Y0268713D03*
X0114481Y0275513D03*
X0094081Y0261063D03*
X0083031Y0245763D03*
X0077931Y0245763D03*
X0081331Y0236413D03*
X0082181Y0227063D03*
X0097481Y0242363D03*
X0109381Y0245763D03*
X0112781Y0242363D03*
X0122981Y0238963D03*
X0073681Y0199013D03*
X0073681Y0188813D03*
X0080481Y0185413D03*
X0079631Y0176063D03*
X0077081Y0171813D03*
X0223281Y0241513D03*
M02*
