%
M48
M72
T01C0.02362
T02C0.02400
T03C0.03200
T04C0.03600
T05C0.03937
T06C0.15748
%
T01
X56368Y68429
X62274Y82209
X113631Y69813
X131171Y5437
X343770Y5437
X495344Y5437
X212274Y353862
X172510Y405043
X148888Y412917
X142982Y410949
X152825Y420791
X158730Y426697
X146919Y432602
X139045Y424728
X105581Y410949
X56368Y466067
X160699Y466067
X294557Y466067
X495344Y466067
X56368Y349925
T02
X94081Y333313
X105131Y345213
X110231Y322263
X103431Y308663
X106831Y305263
X115331Y296763
X116181Y290813
X121281Y301013
X136581Y307813
X136581Y321413
X157831Y324813
X161231Y333313
X162081Y346063
X165481Y349463
X178231Y358813
X181631Y366463
X186731Y360513
X193531Y360513
X202031Y365613
X205431Y358813
X198631Y349463
X205431Y340113
X212231Y339263
X205431Y325663
X202031Y305263
X200331Y296763
X207981Y294213
X207981Y289113
X199481Y259363
X179931Y257663
X169731Y248313
X179081Y244063
X169731Y223663
X175681Y217713
X168031Y210913
X162931Y201563
X151031Y186263
X144231Y193063
X160381Y171813
X169731Y154813
X169731Y144613
X168881Y130163
X164631Y113163
X168031Y109763
X151881Y102963
X139131Y105513
X135731Y108913
X127231Y114013
X125531Y119113
X118731Y112313
X111931Y104663
X111931Y98713
X116181Y94463
X100031Y110613
X93231Y98713
X77081Y97013
X97481Y71513
X83881Y70663
X94081Y50263
X97481Y46863
X116181Y51113
X115331Y63013
X117031Y74913
X123831Y74913
X125531Y69625
X131481Y74913
X141681Y74913
X145931Y55363
X151300Y48026
X170581Y58763
X180781Y44313
X146781Y30713
X173131Y80013
X201181Y97863
X197781Y106363
X206281Y119963
X211381Y119963
X222431Y76613
X142531Y136963
X130631Y130163
X115331Y129313
X106831Y129313
X103431Y138663
X94081Y142063
X95781Y154813
X107681Y171813
X120431Y150563
X117031Y143763
X137431Y159063
X142531Y153963
X94081Y201563
X109381Y209213
X102581Y224513
X121281Y222813
X130631Y219413
X151031Y218563
X154431Y221963
X148481Y240663
X145081Y250863
X131481Y260213
X126381Y265313
X129781Y268713
X133181Y272113
X139981Y268713
X152731Y276363
X162931Y261063
X170581Y283163
X173981Y300163
X156981Y300163
X149331Y294213
X114481Y275513
X104281Y272113
X99181Y267013
X94081Y261063
X83031Y245763
X77931Y245763
X81331Y236413
X82181Y227063
X97481Y242363
X109381Y245763
X112781Y242363
X122981Y238963
X114481Y268713
X98331Y289113
X96631Y298463
X79631Y295913
X72831Y295913
X73681Y284013
X80481Y286563
X138281Y366463
X141681Y372413
X145081Y363063
X152731Y370713
X162081Y364763
X172281Y372413
X188431Y373263
X188431Y380063
X198631Y382613
X205431Y388563
X208831Y385163
X230081Y379213
X178231Y387713
X166913Y387713
X158681Y387713
X153581Y387713
X145931Y389413
X140831Y389413
X135731Y391113
X128931Y374113
X120431Y377513
X110231Y380913
X109381Y386013
X113631Y388563
X117031Y391963
X117031Y401313
X113631Y416613
X117031Y425113
X136089Y436163
X134881Y409813
X98331Y388563
X119581Y368163
X178231Y417463
X183331Y422563
X179931Y429363
X169731Y434463
X198631Y437013
X218181Y435313
X223281Y241513
X80481Y185413
X73681Y188813
X73681Y199013
X79631Y176063
X77081Y171813
T03
X216604Y401055
X216604Y420055
T04
X228612Y347209
X228612Y337209
X228612Y327209
X228612Y317209
X228593Y285043
X228593Y275043
X228593Y265043
X228593Y255043
X218593Y255043
X218593Y265043
X218593Y275043
X218593Y285043
X195344Y285043
X185344Y285043
X185344Y275043
X195344Y275043
X195344Y265043
X185344Y265043
X185344Y255043
X195344Y255043
X195344Y245043
X185344Y245043
X185344Y235043
X195344Y235043
X195344Y225043
X185344Y225043
X185344Y215043
X195344Y215043
X195344Y205043
X185344Y205043
X185344Y195043
X195344Y195043
X195344Y185043
X185344Y185043
X185344Y175043
X195344Y175043
X195344Y165043
X185344Y165043
X185344Y155043
X195344Y155043
X195344Y145043
X185344Y145043
X185344Y135043
X195344Y135043
X195344Y125043
X185344Y125043
X218593Y125043
X228593Y125043
X228593Y135043
X228593Y145043
X228593Y155043
X218593Y155043
X218593Y145043
X218593Y135043
X218593Y165043
X228593Y165043
X228593Y175043
X228593Y185043
X228593Y195043
X228593Y205043
X228593Y215043
X228593Y225043
X228593Y235043
X228593Y245043
X218593Y245043
X218593Y235043
X218593Y225043
X218593Y215043
X218593Y205043
X218593Y195043
X218593Y185043
X218593Y175043
X219754Y70555
X219754Y60555
X219754Y50555
X207549Y50555
X207549Y60555
X207549Y70555
X195344Y70555
X195344Y60555
X195344Y50555
X183140Y50555
X183140Y60555
X183140Y70555
X197037Y23154
X207037Y23154
X95738Y395949
X95738Y405949
X95738Y415949
X95738Y425949
T05
X87707Y378469
X87707Y368626
X87707Y358783
X87707Y348941
X87707Y339098
X87707Y329256
X87707Y319413
X87707Y309571
X87707Y299728
X87707Y289886
X87707Y280043
X87707Y270201
X87707Y260358
X87707Y250516
X87707Y240673
X87707Y230831
X87707Y220988
X87707Y211146
X87707Y201303
X87707Y191461
X87707Y181618
X87707Y171776
X87707Y161933
X87707Y152091
X87707Y142248
X87707Y132406
X87707Y122563
X87707Y112720
X87707Y102878
X87707Y93035
X68022Y93035
X68022Y102878
X68022Y112720
X68022Y122563
X68022Y132406
X68022Y142248
X68022Y152091
X68022Y161933
X68022Y171776
X68022Y181618
X68022Y191461
X68022Y201303
X68022Y211146
X68022Y220988
X68022Y230831
X68022Y240673
X68022Y250516
X68022Y260358
X68022Y270201
X68022Y280043
X68022Y289886
X68022Y299728
X68022Y309571
X68022Y319413
X68022Y329256
X68022Y339098
X68022Y348941
X68022Y358783
X68022Y368626
X68022Y378469
T06
X72116Y21185
X495344Y21185
X495344Y450319
X72116Y450319
M30
